<svg width="154" height="147" viewBox="0 0 154 147" fill="none" xmlns="http://www.w3.org/2000/svg">
<path d="M147.954 64.4222C150.116 62.3147 150.894 59.1625 149.961 56.2911C149.028 53.4197 146.546 51.3266 143.558 50.8927L106.409 45.4949C103.826 45.1193 101.592 43.4966 100.437 41.1557L83.8236 7.4942C82.1131 4.005 78.1153 2.28245 74.4044 3.43522C73.6939 2.75772 73.0908 3.12317 72.2546 4.48777C71.1213 5.24058 70.2053 6.27692 69.5977 7.4942L66.1232 14.5347L48.9782 41.1557C47.8227 43.4966 45.5892 45.1193 43.0058 45.4949L22.704 49.0273L9.86397 50.893C6.87615 51.3272 4.39359 53.42 3.46076 56.2914C2.52763 59.1628 3.30594 62.315 5.46805 64.4225L32.3489 90.6244C34.2185 92.4468 35.0715 95.0722 34.6301 97.6454L28.2842 134.644C27.8524 137.173 28.6695 139.754 30.4778 141.574C32.2862 143.394 34.8623 144.228 37.3941 143.813C39.0863 144.095 40.8245 143.811 42.3388 143.005L75.5653 125.536C76.3253 125.155 77.142 124.899 77.9836 124.779C78.8252 124.899 79.6419 125.155 80.402 125.536L113.628 143.005C116.301 144.41 119.539 144.176 121.982 142.402C124.425 140.627 125.648 137.619 125.137 134.644L118.792 97.6454C118.35 95.0722 119.203 92.4465 121.073 90.6244L147.954 64.4222Z" fill="#E8EDFC"/>
<path d="M5.46791 64.4222C3.30581 62.3147 2.52779 59.1625 3.46063 56.2911C4.39346 53.4197 6.87602 51.3269 9.86384 50.8927L47.0121 45.4949C49.5955 45.1193 51.829 43.4966 52.9845 41.1557L69.5976 7.4942C71.3084 4.005 75.3062 2.28245 79.0171 3.43522C78.0414 4.67259 77.2406 6.03839 76.6378 7.4942L65.0909 41.1557C63.9355 43.4966 61.7022 45.1196 59.1186 45.4952L21.9703 50.893C18.9824 51.3272 16.4999 53.42 15.5671 56.2914C14.6339 59.1628 15.4122 62.315 17.5743 64.4225L44.4552 90.6244C46.3247 92.4465 47.1778 95.0722 46.7361 97.6454L40.3908 134.644C39.5771 139.386 41.4485 140.326 44.7837 139.3C44.8695 139.61 45.0007 139.905 45.1735 140.176L39.7931 143.005C37.1206 144.41 33.8826 144.176 31.4399 142.402C28.9973 140.627 27.774 137.619 28.2844 134.644L34.6303 97.6454C35.0716 95.0722 34.2186 92.4465 32.3494 90.6244L5.46791 64.4222Z" fill="#CAD9FC"/>
<path d="M117.33 147C115.543 146.999 113.782 146.561 112.202 145.725L78.9727 128.256C77.5574 127.512 75.8664 127.512 74.451 128.256L41.2243 145.725C37.517 147.674 33.025 147.349 29.6367 144.887C26.2483 142.425 24.5512 138.253 25.259 134.125L31.6049 97.1269C31.8738 95.5495 31.3499 93.941 30.204 92.8243L3.32319 66.6215C0.323962 63.6979 -0.755592 59.3251 0.539093 55.3414C1.83378 51.358 5.27797 48.4551 9.42306 47.8538L46.5714 42.4561C48.1547 42.2259 49.5232 41.2319 50.2319 39.7977L66.8453 6.13288C68.6992 2.37754 72.5242 0 76.7122 0C80.9002 0 84.7251 2.37754 86.5791 6.13288L103.192 39.7977C103.901 41.2313 105.268 42.225 106.85 42.4561L144.001 47.8538C148.146 48.4554 151.591 51.358 152.885 55.3414C154.18 59.3248 153.101 63.6979 150.101 66.6215L123.22 92.8243C122.074 93.941 121.551 95.5495 121.819 97.1269L128.165 134.125C128.709 137.321 127.819 140.594 125.732 143.074C123.645 145.554 120.572 146.99 117.331 147H117.33ZM76.7104 121.553C78.4947 121.554 80.2521 121.988 81.8321 122.817L115.062 140.288C116.699 141.147 118.682 141.003 120.178 139.916C121.674 138.828 122.423 136.986 122.11 135.163L115.764 98.165C115.151 94.5954 116.335 90.9526 118.929 88.4256L145.81 62.2229C147.135 60.9318 147.611 59.0007 147.04 57.2416C146.469 55.4824 144.949 54.1997 143.119 53.9327L105.967 48.5349C102.383 48.0162 99.2838 45.7649 97.6831 42.5161L81.0697 8.85126C80.25 7.19383 78.5607 6.14488 76.7116 6.14488C74.8624 6.14488 73.1735 7.19383 72.3535 8.85126L55.7401 42.5161C54.1379 45.7652 51.0381 48.0165 47.4529 48.5349L10.3046 53.9327C8.47433 54.1997 6.95431 55.4824 6.38303 57.2416C5.81175 59.0007 6.28851 60.9318 7.6129 62.2229L34.4937 88.4256C37.0885 90.9526 38.2725 94.5954 37.6592 98.165L31.3133 135.163C31.0006 136.986 31.7502 138.829 33.2465 139.917C34.7428 141.004 36.7267 141.148 38.3643 140.288L71.588 122.82C73.1681 121.989 74.9257 121.554 76.7104 121.553Z" fill="#514A7A"/>
</svg>
