<svg width="141" height="148" viewBox="0 0 141 148" fill="none" xmlns="http://www.w3.org/2000/svg">
<path d="M112.177 125.8V138.133C112.177 142.22 108.864 145.533 104.777 145.533H35.7105C31.6236 145.533 28.3105 142.22 28.3105 138.133V125.8C28.3105 129.887 31.6236 133.2 35.7105 133.2H104.777C108.864 133.2 112.177 129.887 112.177 125.8Z" fill="#E8EDFC"/>
<path d="M104.779 133.2V138.133C104.779 142.22 101.466 145.533 97.3789 145.533H104.779C108.866 145.533 112.179 142.22 112.179 138.133V125.8C112.179 129.887 108.866 133.2 104.779 133.2Z" fill="#CAD9FC"/>
<path d="M104.777 2.46667H35.7105C31.6236 2.46667 28.3105 5.77977 28.3105 9.86667V125.8C28.3105 129.887 31.6236 133.2 35.7105 133.2H104.777C108.864 133.2 112.177 129.887 112.177 125.8V9.86667C112.177 5.77977 108.864 2.46667 104.777 2.46667Z" fill="#E8EDFC"/>
<path d="M104.779 2.46667H97.3789C101.466 2.46667 104.779 5.77977 104.779 9.86667V125.8C104.779 129.887 101.466 133.2 97.3789 133.2H104.779C108.866 133.2 112.179 129.887 112.179 125.8V9.86667C112.179 5.77977 108.866 2.46667 104.779 2.46667Z" fill="#CAD9FC"/>
<path d="M94.9115 2.46667L87.8543 9.99494C86.4551 11.4872 84.5005 12.3337 82.4548 12.3333H58.0348C55.9891 12.3337 54.0345 11.4872 52.6353 9.99494L45.5781 2.46667H94.9115Z" fill="#E8EDFC"/>
<path d="M35.7105 145.533H43.1105C39.0236 145.533 35.7105 142.22 35.7105 138.133V9.86668C35.7105 5.77977 39.0236 2.46667 43.1105 2.46667H35.7105C31.6236 2.46667 28.3105 5.77977 28.3105 9.86668V138.133C28.3105 142.22 31.6236 145.533 35.7105 145.533Z" fill="#EDEEF2"/>
<path d="M25.8438 9.8667H30.7771V29.6H25.8438V9.8667Z" fill="#EDEEF2"/>
<path d="M28.3104 22.2001C29.6727 22.2001 30.7771 21.0957 30.7771 19.7334C30.7771 18.3711 29.6727 17.2667 28.3104 17.2667C26.9481 17.2667 25.8438 18.3711 25.8438 19.7334C25.8438 21.0957 26.9481 22.2001 28.3104 22.2001Z" fill="#514A7A"/>
<path d="M3.19828 77.6235L25.8447 93.24V138.133C25.8447 143.583 30.2622 148 35.7114 148H104.778C110.227 148 114.645 143.583 114.645 138.133V93.24L137.289 77.6235C139.292 76.2424 140.489 73.9644 140.489 71.5309C140.489 69.0973 139.292 66.8194 137.289 65.4382L114.645 49.8267V9.86667C114.645 4.41746 110.227 0 104.778 0H35.7114C30.2622 0 25.8447 4.41746 25.8447 9.86667C25.8447 11.229 26.9491 12.3333 28.3114 12.3333C29.6737 12.3333 30.7781 11.229 30.7781 9.86667C30.7781 7.14206 32.9868 4.93333 35.7114 4.93333H44.51L50.837 11.6821C52.7052 13.6673 55.3088 14.7951 58.0348 14.8H82.4548C85.1811 14.7968 87.7853 13.6687 89.6525 11.6821L95.9795 4.93333H104.778C107.503 4.93333 109.711 7.14206 109.711 9.86667V47.2909C108.728 47.468 107.949 48.2205 107.738 49.1969C107.527 50.1732 107.925 51.1805 108.747 51.7482L109.711 52.4142V90.6475L71.6434 116.905C70.8005 117.486 69.6865 117.486 68.8437 116.905L30.7781 90.6525V52.4191L31.7425 51.7531C32.568 51.1865 32.969 50.1771 32.7575 49.1984C32.546 48.2198 31.7639 47.4661 30.7781 47.2909V29.6C30.7781 28.2377 29.6737 27.1333 28.3114 27.1333C26.9491 27.1333 25.8447 28.2377 25.8447 29.6V49.8267L3.19828 65.4407C1.19572 66.822 0 69.0993 0 71.5321C0 73.9649 1.19572 76.2422 3.19828 77.6235ZM86.0512 8.3102C85.1187 9.30332 83.817 9.86665 82.4548 9.86667H58.0348C56.6716 9.86493 55.3696 9.30091 54.4359 8.30773L51.2736 4.93333H89.2159L86.0512 8.3102ZM104.778 143.067H35.7114C32.9868 143.067 30.7781 140.858 30.7781 138.133V134.295C32.2713 135.183 33.9743 135.656 35.7114 135.667H104.778C106.515 135.656 108.218 135.183 109.711 134.295V138.133C109.711 140.858 107.503 143.067 104.778 143.067ZM114.645 55.8157L134.489 69.5033C135.156 69.9638 135.555 70.7227 135.555 71.5333C135.555 72.344 135.156 73.1029 134.489 73.5634L114.645 87.2485V55.8157ZM66.0514 120.965C68.5847 122.698 71.9221 122.698 74.4554 120.965L109.711 96.644V125.8C109.711 128.525 107.503 130.733 104.778 130.733H35.7114C32.9868 130.733 30.7781 128.525 30.7781 125.8V96.644L66.0514 120.965ZM6.00042 69.5033L25.8447 55.8108V87.2509L5.99795 73.5634C5.33077 73.1029 4.93245 72.344 4.93245 71.5333C4.93245 70.7227 5.33077 69.9638 5.99795 69.5033H6.00042Z" fill="#514A7A"/>
<path d="M41.2092 45.2215L45.9427 41.9556C47.0351 41.1725 47.2995 39.659 46.5373 38.5519C45.7751 37.4449 44.2668 37.1519 43.1455 37.893L38.4243 41.1589C37.3319 41.9419 37.0675 43.4555 37.8297 44.5625C38.592 45.6696 40.1002 45.9626 41.2215 45.2215H41.2092Z" fill="#514A7A"/>
<path d="M55.4116 35.4262L60.1451 32.1604C60.895 31.6703 61.3202 30.8121 61.2559 29.9186C61.1917 29.0251 60.648 28.2366 59.8357 27.8589C59.0234 27.4812 58.0701 27.5736 57.3454 28.1002L52.6144 31.3636C51.8699 31.8557 51.4493 32.7115 51.5144 33.6015C51.5796 34.4915 52.1203 35.2769 52.9285 35.6554C53.7367 36.0338 54.6863 35.9461 55.4116 35.4262Z" fill="#514A7A"/>
<path d="M69.6113 25.6311L70.2427 25.197L70.8742 25.6311C71.9946 26.3634 73.4945 26.0685 74.2544 24.9666C75.0142 23.8647 74.7566 22.3579 73.6739 21.571L71.6413 20.1699C70.7991 19.5902 69.6864 19.5902 68.8441 20.1699L66.8116 21.571C65.7289 22.3579 65.4713 23.8647 66.2311 24.9666C66.9909 26.0685 68.4909 26.3634 69.6113 25.6311Z" fill="#514A7A"/>
<path d="M100.677 45.6556C101.757 45.6556 102.711 44.9534 103.032 43.9227C103.353 42.8919 102.967 41.7721 102.078 41.1589L97.3446 37.893C96.2233 37.1519 94.715 37.4449 93.9528 38.5519C93.1905 39.659 93.4549 41.1725 94.5474 41.9556L99.2784 45.2215C99.6899 45.5044 100.178 45.6558 100.677 45.6556Z" fill="#514A7A"/>
<path d="M86.4747 35.8629C87.5558 35.8644 88.5119 35.1618 88.8333 34.1296C89.1547 33.0974 88.7666 31.9762 87.8758 31.3637L83.1422 28.1003C82.4191 27.5338 81.4411 27.416 80.6042 27.7946C79.7673 28.1733 79.2101 28.9856 79.1582 29.9028C79.1064 30.8199 79.5685 31.6899 80.3574 32.1604L85.0909 35.4263C85.498 35.7073 85.9801 35.8594 86.4747 35.8629Z" fill="#514A7A"/>
<circle cx="69.6816" cy="68.5" r="22.5" fill="url(#paint0_linear)"/>
<path d="M67.1451 75L66.1713 71.9667H60.5847L59.6209 75H57.1816L61.647 61H65.1189L69.5843 75H67.1451ZM61.2831 69.7792H65.4632L63.3584 63.2653L61.2831 69.7792Z" fill="white"/>
<path d="M79.4965 75L77.0967 70.1097H73.7329V75H71.3625V61H77.2147C77.6474 61 78.0245 61.0259 78.3458 61.0778C79.5392 61.2593 80.4375 61.7519 81.0407 62.5556C81.6505 63.3528 81.9554 64.3542 81.9554 65.5597C81.9554 66.5255 81.7522 67.3681 81.3456 68.0875C80.9456 68.8069 80.3522 69.3417 79.5654 69.6917L82.1816 75H79.4965ZM73.7329 67.9222H77.1163C77.4835 67.9222 77.7819 67.8898 78.0114 67.825C78.5556 67.6889 78.949 67.4069 79.1916 66.9792C79.4408 66.5514 79.5654 66.0782 79.5654 65.5597C79.5654 65.0412 79.4408 64.5681 79.1916 64.1403C78.949 63.706 78.5556 63.4208 78.0114 63.2847C77.7753 63.2264 77.477 63.1972 77.1163 63.1972H73.7329V67.9222Z" fill="white"/>
<defs>
<linearGradient id="paint0_linear" x1="56.1608" y1="55.375" x2="84.5437" y2="89.8087" gradientUnits="userSpaceOnUse">
<stop stop-color="#FFAB8F"/>
<stop offset="1" stop-color="#4F5E75"/>
</linearGradient>
</defs>
</svg>
