<svg width="135" height="147" viewBox="0 0 135 147" fill="none" xmlns="http://www.w3.org/2000/svg">
<path d="M14.5625 12.2503C14.5625 6.83771 18.9503 2.44995 24.3628 2.44995H122.366C127.779 2.44995 132.167 6.83771 132.167 12.2503V110.254L102.766 139.655H24.3628C18.9503 139.655 14.5625 135.267 14.5625 129.854V12.2503Z" fill="#E8EDFC"/>
<path d="M122.367 2.44995H115.017C120.429 2.44995 124.817 6.83771 124.817 12.2503V110.254L95.416 139.655H102.766L132.167 110.254V12.2503C132.167 6.83771 127.78 2.44995 122.367 2.44995Z" fill="#CAD9FC"/>
<path d="M102.768 139.655V120.054C102.768 114.641 107.155 110.254 112.568 110.254H132.169" fill="#A4C2F7"/>
<path d="M47.7072 73.7818C53.4961 67.3879 61.711 63.7287 70.3361 63.7021C83.7332 63.7021 92.9651 76.7635 92.9651 91.7997C92.9651 106.89 83.4098 132.878 47.7072 144.33C11.9947 132.878 2.44922 106.89 2.44922 91.7997C2.44922 76.7635 11.6836 63.7021 25.0782 63.7021C33.7034 63.7287 41.9182 67.3879 47.7072 73.7818Z" fill="url(#paint0_linear)"/>
<path d="M70.3373 63.7021C68.9691 63.7094 67.6029 63.8092 66.2481 64.0011C77.8517 65.9342 85.616 78.0204 85.616 91.7997C85.616 106.356 76.7271 131.052 44.0332 143.06C45.2288 143.499 46.449 143.925 47.7083 144.33C83.4109 132.878 92.9663 106.89 92.9663 91.7997C92.9663 76.7635 83.7344 63.7021 70.3373 63.7021Z" fill="#4F5E75"/>
<path d="M24.364 139.655H31.7143C26.3017 139.655 21.9139 135.267 21.9139 129.854V123.19C4.02831 101.713 7.66424 75.8128 21.9139 66.7842V12.2503C21.9139 6.83771 26.3017 2.44995 31.7143 2.44995H24.364C18.9514 2.44995 14.5637 6.83771 14.5637 12.2503V66.7842C0.313984 75.8128 -3.32194 101.713 14.5637 123.19V129.854C14.5637 135.267 18.9514 139.655 24.364 139.655Z" fill="white"/>
<path d="M9.03591 109.984L4.56696 111.996C1.67824 105.727 0.123077 98.9264 0 92.0251H4.90017C5.02576 98.2326 6.43384 104.347 9.03591 109.984Z" fill="white"/>
<path d="M80.7137 142.105H102.764C103.414 142.105 104.037 141.846 104.497 141.387L133.898 111.986C134.357 111.527 134.615 110.904 134.616 110.254V12.2504C134.607 5.48806 129.127 0.00810027 122.365 0H24.3617C17.5994 0.00810027 12.1194 5.48806 12.1113 12.2504V53.9018C12.1113 55.255 13.2083 56.3519 14.5614 56.3519C15.9146 56.3519 17.0115 55.255 17.0115 53.9018V12.2504C17.0115 8.19099 20.3023 4.90017 24.3617 4.90017H122.365C126.425 4.90017 129.715 8.19099 129.715 12.2504V107.804H112.565C105.802 107.812 100.322 113.292 100.314 120.054V137.205H80.7137C79.3605 137.205 78.2636 138.302 78.2636 139.655C78.2636 141.008 79.3605 142.105 80.7137 142.105ZM112.565 112.704H126.251L105.215 133.74V120.054C105.215 115.995 108.505 112.704 112.565 112.704Z" fill="#514A7A"/>
<path d="M29.2626 19.6006H34.1628C35.5159 19.6006 36.6128 18.5037 36.6128 17.1505C36.6128 15.7974 35.5159 14.7004 34.1628 14.7004H29.2626C27.9094 14.7004 26.8125 15.7974 26.8125 17.1505C26.8125 18.5037 27.9094 19.6006 29.2626 19.6006Z" fill="#514A7A"/>
<path d="M117.466 14.7004H43.9638C42.6106 14.7004 41.5137 15.7974 41.5137 17.1505C41.5137 18.5037 42.6106 19.6006 43.9638 19.6006H117.466C118.819 19.6006 119.916 18.5037 119.916 17.1505C119.916 15.7974 118.819 14.7004 117.466 14.7004Z" fill="#514A7A"/>
<path d="M29.2626 34.3013H34.1628C35.5159 34.3013 36.6128 33.2044 36.6128 31.8512C36.6128 30.4981 35.5159 29.4011 34.1628 29.4011H29.2626C27.9094 29.4011 26.8125 30.4981 26.8125 31.8512C26.8125 33.2044 27.9094 34.3013 29.2626 34.3013Z" fill="#514A7A"/>
<path d="M43.9638 34.3013H100.316C101.669 34.3013 102.766 33.2044 102.766 31.8512C102.766 30.4981 101.669 29.4011 100.316 29.4011H43.9638C42.6106 29.4011 41.5137 30.4981 41.5137 31.8512C41.5137 33.2044 42.6106 34.3013 43.9638 34.3013Z" fill="#514A7A"/>
<path d="M29.2626 49.0017H34.1628C35.5159 49.0017 36.6128 47.9048 36.6128 46.5516C36.6128 45.1985 35.5159 44.1016 34.1628 44.1016H29.2626C27.9094 44.1016 26.8125 45.1985 26.8125 46.5516C26.8125 47.9048 27.9094 49.0017 29.2626 49.0017Z" fill="#514A7A"/>
<path d="M43.9638 49.0017H83.1651C84.5182 49.0017 85.6152 47.9048 85.6152 46.5516C85.6152 45.1985 84.5182 44.1016 83.1651 44.1016H43.9638C42.6106 44.1016 41.5137 45.1985 41.5137 46.5516C41.5137 47.9048 42.6106 49.0017 43.9638 49.0017Z" fill="#514A7A"/>
<path d="M124.818 51.4517C124.818 50.0985 123.721 49.0016 122.368 49.0016C121.015 49.0016 119.918 50.0985 119.918 51.4517V85.7528C119.918 87.106 121.015 88.2029 122.368 88.2029C123.721 88.2029 124.818 87.106 124.818 85.7528V51.4517Z" fill="#514A7A"/>
<path d="M122.368 93.1031C121.015 93.1031 119.918 94.2001 119.918 95.5532V100.453C119.918 101.807 121.015 102.903 122.368 102.903C123.721 102.903 124.818 101.807 124.818 100.453V95.5532C124.818 94.2001 123.721 93.1031 122.368 93.1031Z" fill="#514A7A"/>
<path d="M22.1042 134.019C29.5557 139.756 37.9738 144.112 46.9603 146.882C47.198 146.958 47.4458 146.998 47.6953 147C47.9498 147 48.2028 146.961 48.445 146.882C83.1161 135.771 95.4156 110.386 95.4156 92.0251C95.4156 74.8941 84.3902 61.4774 70.3365 61.4774C61.9257 61.4943 53.836 64.7088 47.7075 70.4692C41.5787 64.7092 33.4892 61.4948 25.0786 61.4774C11.0175 61.4774 0.00195312 74.8941 0.00195312 92.0251C0.00195312 93.3782 1.09889 94.4751 2.45204 94.4751C3.80518 94.4751 4.90212 93.3782 4.90212 92.0251C4.90212 77.6431 13.7641 66.3776 25.0786 66.3776C32.9574 66.4368 40.4601 69.7558 45.8038 75.5458C46.2682 76.1182 46.9656 76.4512 47.7026 76.4523C48.4389 76.4524 49.1361 76.1213 49.6014 75.5507C54.9451 69.7585 62.4488 66.4377 70.3291 66.3776C81.6436 66.3776 90.508 77.648 90.508 92.0251C90.508 108.602 79.2597 131.518 47.7026 141.953C39.5482 139.368 31.9071 135.381 25.1227 130.17C18.1914 124.857 12.6678 117.926 9.03541 109.984C8.45919 108.787 7.05232 108.243 5.8209 108.742C5.20992 108.992 4.72897 109.482 4.49154 110.098C4.2541 110.714 4.28121 111.4 4.56646 111.996C8.52623 120.659 14.5475 128.22 22.1042 134.019Z" fill="#514A7A"/>
<path d="M6.01661 101.189C5.70679 99.9093 4.44804 99.0978 3.15491 99.3437C2.24895 99.4886 1.49988 100.128 1.21391 100.999C0.927943 101.871 1.15301 102.83 1.7971 103.483C2.44119 104.136 3.39636 104.375 4.27215 104.102C5.54133 103.756 6.31136 102.47 6.01661 101.189Z" fill="#514A7A"/>
<defs>
<linearGradient id="paint0_linear" x1="20.5106" y1="80.4995" x2="69.9395" y2="147.821" gradientUnits="userSpaceOnUse">
<stop stop-color="#FFAB8F"/>
<stop offset="1" stop-color="#4F5E75"/>
</linearGradient>
</defs>
</svg>
