<svg width="28" height="29" viewBox="0 0 28 29" fill="none" xmlns="http://www.w3.org/2000/svg">
<circle cx="14" cy="14.5" r="14" fill="url(#paint0_linear)"/>
<path d="M12.318 18.5L11.724 16.628H8.316L7.728 18.5H6.24L8.964 9.86H11.082L13.806 18.5H12.318ZM8.742 15.278H11.292L10.008 11.258L8.742 15.278ZM19.8528 18.5L18.3888 15.482H16.3368V18.5H14.8908V9.86H18.4608C18.7248 9.86 18.9548 9.876 19.1508 9.908C19.8788 10.02 20.4268 10.324 20.7948 10.82C21.1668 11.312 21.3528 11.93 21.3528 12.674C21.3528 13.27 21.2288 13.79 20.9808 14.234C20.7368 14.678 20.3748 15.008 19.8948 15.224L21.4908 18.5H19.8528ZM16.3368 14.132H18.4008C18.6248 14.132 18.8068 14.112 18.9468 14.072C19.2788 13.988 19.5188 13.814 19.6668 13.55C19.8188 13.286 19.8948 12.994 19.8948 12.674C19.8948 12.354 19.8188 12.062 19.6668 11.798C19.5188 11.53 19.2788 11.354 18.9468 11.27C18.8028 11.234 18.6208 11.216 18.4008 11.216H16.3368V14.132Z" fill="white"/>
<defs>
<linearGradient id="paint0_linear" x1="0.903225" y1="1.62903" x2="28" y2="28.5" gradientUnits="userSpaceOnUse">
<stop stop-color="#494460"/>
<stop offset="1" stop-color="#2E2A42"/>
</linearGradient>
</defs>
</svg>
