<svg width="80" height="80" viewBox="0 0 80 80" fill="none" xmlns="http://www.w3.org/2000/svg">
<g filter="url(#filter0_d)">
<circle cx="40" cy="34" r="25" fill="#F6F7FB"/>
<path d="M43.0899 27.564C43.4804 27.1735 43.4804 26.5404 43.0899 26.1498C42.6994 25.7593 42.0662 25.7593 41.6757 26.1498L43.0899 27.564ZM41.6757 41.8498C42.0662 42.2403 42.6994 42.2403 43.0899 41.8498C43.4804 41.4592 43.4804 40.8261 43.0899 40.4355L41.6757 41.8498ZM35.24 33.9998L34.5328 33.2927L33.8257 33.9998L34.5328 34.7069L35.24 33.9998ZM43.0899 40.4355L35.9471 33.2927L34.5328 34.7069L41.6757 41.8498L43.0899 40.4355ZM35.9471 34.7069L43.0899 27.564L41.6757 26.1498L34.5328 33.2927L35.9471 34.7069Z" fill="#2D2942"/>
</g>
<defs>
<filter id="filter0_d" x="0" y="0" width="80" height="80" filterUnits="userSpaceOnUse" color-interpolation-filters="sRGB">
<feFlood flood-opacity="0" result="BackgroundImageFix"/>
<feColorMatrix in="SourceAlpha" type="matrix" values="0 0 0 0 0 0 0 0 0 0 0 0 0 0 0 0 0 0 127 0"/>
<feOffset dy="6"/>
<feGaussianBlur stdDeviation="7.5"/>
<feColorMatrix type="matrix" values="0 0 0 0 0.172549 0 0 0 0 0.160784 0 0 0 0 0.254902 0 0 0 0.23 0"/>
<feBlend mode="normal" in2="BackgroundImageFix" result="effect1_dropShadow"/>
<feBlend mode="normal" in="SourceGraphic" in2="effect1_dropShadow" result="shape"/>
</filter>
</defs>
</svg>
