<svg width="42" height="42" viewBox="0 0 42 42" fill="none" xmlns="http://www.w3.org/2000/svg">
<circle cx="21" cy="21" r="21" fill="#2D2942"/>
<path d="M16.5303 24.5303C16.2374 24.8232 15.7626 24.8232 15.4697 24.5303C15.1768 24.2374 15.1768 23.7626 15.4697 23.4697L16.5303 24.5303ZM26.5303 23.4697C26.8232 23.7626 26.8232 24.2374 26.5303 24.5303C26.2374 24.8232 25.7626 24.8232 25.4697 24.5303L26.5303 23.4697ZM21 19L20.4697 18.4697L21 17.9393L21.5303 18.4697L21 19ZM25.4697 24.5303L20.4697 19.5303L21.5303 18.4697L26.5303 23.4697L25.4697 24.5303ZM21.5303 19.5303L16.5303 24.5303L15.4697 23.4697L20.4697 18.4697L21.5303 19.5303Z" fill="white"/>
</svg>
