<svg width="80" height="80" viewBox="0 0 80 80" fill="none" xmlns="http://www.w3.org/2000/svg">
<g filter="url(#filter0_d)">
<circle r="25" transform="matrix(-1 0 0 1 40 34)" fill="#7589A7"/>
<path d="M36.9101 27.564C36.5196 27.1735 36.5196 26.5404 36.9101 26.1498C37.3006 25.7593 37.9338 25.7593 38.3243 26.1498L36.9101 27.564ZM38.3243 41.8498C37.9338 42.2403 37.3006 42.2403 36.9101 41.8498C36.5196 41.4592 36.5196 40.8261 36.9101 40.4355L38.3243 41.8498ZM44.76 33.9998L45.4672 33.2927L46.1743 33.9998L45.4672 34.7069L44.76 33.9998ZM36.9101 40.4355L44.0529 33.2927L45.4672 34.7069L38.3243 41.8498L36.9101 40.4355ZM44.0529 34.7069L36.9101 27.564L38.3243 26.1498L45.4672 33.2927L44.0529 34.7069Z" fill="white"/>
</g>
<defs>
<filter id="filter0_d" x="0" y="0" width="80" height="80" filterUnits="userSpaceOnUse" color-interpolation-filters="sRGB">
<feFlood flood-opacity="0" result="BackgroundImageFix"/>
<feColorMatrix in="SourceAlpha" type="matrix" values="0 0 0 0 0 0 0 0 0 0 0 0 0 0 0 0 0 0 127 0"/>
<feOffset dy="6"/>
<feGaussianBlur stdDeviation="7.5"/>
<feColorMatrix type="matrix" values="0 0 0 0 1 0 0 0 0 0.439216 0 0 0 0 0.254902 0 0 0 0.23 0"/>
<feBlend mode="normal" in2="BackgroundImageFix" result="effect1_dropShadow"/>
<feBlend mode="normal" in="SourceGraphic" in2="effect1_dropShadow" result="shape"/>
</filter>
</defs>
</svg>
