<?xml version="1.0" encoding="utf-8"?>
<!-- Generator: Adobe Illustrator 25.0.0, SVG Export Plug-In . SVG Version: 6.00 Build 0)  -->
<svg version="1.1" id="Layer_1" xmlns="http://www.w3.org/2000/svg" xmlns:xlink="http://www.w3.org/1999/xlink" x="0px" y="0px"
	 viewBox="0 0 62 62" style="enable-background:new 0 0 62 62;" xml:space="preserve">
<style type="text/css">
	.st0{fill:#7589A7;}
	.st1{fill-rule:evenodd;clip-rule:evenodd;fill:#FFFFFF;}
</style>
<circle class="st0" cx="31" cy="31" r="31"/>
<path class="st1" d="M43.1,32.9H18.9c-0.2,0-0.5-0.1-0.7-0.3c-0.2-0.2-0.3-0.4-0.3-0.7c0-0.2,0.1-0.5,0.3-0.7
	c0.2-0.2,0.4-0.3,0.7-0.3V21c0-0.8,0.3-1.6,0.9-2.1c0.6-0.6,1.3-0.9,2.1-0.9c0.4,0,0.8,0.1,1.2,0.3c0.4,0.2,0.7,0.4,1,0.7l0.2,0.2
	c0.5-0.2,1.1-0.3,1.6-0.2c0.5,0.1,1,0.4,1.4,0.7l1.3,1.3c0.1,0.1,0.2,0.2,0.2,0.3c0,0.1,0.1,0.2,0.1,0.4s0,0.2-0.1,0.4
	c0,0.1-0.1,0.2-0.2,0.3L26.1,25c-0.1,0.1-0.2,0.2-0.3,0.2c-0.1,0-0.2,0.1-0.4,0.1s-0.2,0-0.4-0.1c-0.1,0-0.2-0.1-0.3-0.2l-1.3-1.3
	c-0.4-0.4-0.7-1-0.8-1.6c-0.1-0.6,0-1.2,0.3-1.7l-0.2-0.2c-0.2-0.2-0.4-0.3-0.6-0.3c-0.2-0.1-0.5,0-0.7,0c-0.2,0.1-0.4,0.2-0.5,0.4
	c-0.1,0.2-0.2,0.4-0.2,0.7v10h22.3c0.2,0,0.5,0.1,0.7,0.3c0.2,0.2,0.3,0.4,0.3,0.7c0,0.2-0.1,0.5-0.3,0.7
	C43.6,32.8,43.3,32.9,43.1,32.9z M18.9,36.6v-2.8h24.1v2.8c0,1.5-0.6,2.9-1.6,3.9c-1,1-2.5,1.6-3.9,1.6h-0.9v0.9
	c0,0.2-0.1,0.5-0.3,0.7c-0.2,0.2-0.4,0.3-0.7,0.3c-0.2,0-0.5-0.1-0.7-0.3c-0.2-0.2-0.3-0.4-0.3-0.7v-0.9h-7.4v0.9
	c0,0.2-0.1,0.5-0.3,0.7c-0.2,0.2-0.4,0.3-0.7,0.3c-0.2,0-0.5-0.1-0.7-0.3c-0.2-0.2-0.3-0.4-0.3-0.7v-0.9h-0.9
	c-1.5,0-2.9-0.6-3.9-1.6C19.5,39.5,18.9,38,18.9,36.6z"/>
</svg>
