<svg width="62" height="62" viewBox="0 0 62 62" fill="none" xmlns="http://www.w3.org/2000/svg">
<circle cx="31" cy="31" r="31" fill="#F6F7FB"/>
<path opacity="0.7" fill-rule="evenodd" clip-rule="evenodd" d="M43.0714 32.8571H18.9286C18.6823 32.8571 18.4461 32.7593 18.272 32.5852C18.0978 32.411 18 32.1748 18 31.9286C18 31.6823 18.0978 31.4461 18.272 31.272C18.4461 31.0978 18.6823 31 18.9286 31V21.0271C18.9286 20.2243 19.2475 19.4543 19.8152 18.8866C20.3829 18.3189 21.1529 18 21.9557 18C22.3763 18.0017 22.7921 18.09 23.1771 18.2593C23.5621 18.4286 23.9081 18.6754 24.1936 18.9843L24.3514 19.1607C24.8616 18.955 25.4203 18.9008 25.9605 19.0045C26.5007 19.1083 26.9995 19.3656 27.3971 19.7457L28.7157 21.055C28.8027 21.1413 28.8718 21.244 28.919 21.3572C28.9661 21.4703 28.9904 21.5917 28.9904 21.7143C28.9904 21.8369 28.9661 21.9582 28.919 22.0714C28.8718 22.1845 28.8027 22.2872 28.7157 22.3736L26.0879 25.0014C26.0015 25.0885 25.8988 25.1575 25.7857 25.2047C25.6725 25.2518 25.5512 25.2761 25.4286 25.2761C25.306 25.2761 25.1846 25.2518 25.0715 25.2047C24.9583 25.1575 24.8556 25.0885 24.7693 25.0014L23.46 23.6829C23.0413 23.2609 22.7686 22.716 22.6817 22.1279C22.5948 21.5398 22.6983 20.9393 22.9771 20.4143L22.8193 20.2379C22.6601 20.0638 22.4521 19.9418 22.2225 19.8881C21.9928 19.8343 21.7523 19.8512 21.5324 19.9365C21.3125 20.0219 21.1235 20.1717 20.9903 20.3663C20.857 20.5609 20.7857 20.7913 20.7857 21.0271V31H43.0714C43.3177 31 43.5539 31.0978 43.728 31.272C43.9022 31.4461 44 31.6823 44 31.9286C44 32.1748 43.9022 32.411 43.728 32.5852C43.5539 32.7593 43.3177 32.8571 43.0714 32.8571ZM18.9286 36.5714V33.7857H43.0714V36.5714C43.0714 38.0491 42.4844 39.4662 41.4396 40.511C40.3947 41.5559 38.9776 42.1429 37.5 42.1429H36.5714V43.0714C36.5714 43.3177 36.4736 43.5539 36.2995 43.728C36.1253 43.9022 35.8891 44 35.6429 44C35.3966 44 35.1604 43.9022 34.9863 43.728C34.8121 43.5539 34.7143 43.3177 34.7143 43.0714V42.1429H27.2857V43.0714C27.2857 43.3177 27.1879 43.5539 27.0137 43.728C26.8396 43.9022 26.6034 44 26.3571 44C26.1109 44 25.8747 43.9022 25.7005 43.728C25.5264 43.5539 25.4286 43.3177 25.4286 43.0714V42.1429H24.5C23.0224 42.1429 21.6053 41.5559 20.5604 40.511C19.5156 39.4662 18.9286 38.0491 18.9286 36.5714Z" fill="#CACCD2"/>
</svg>
