<svg width="100" height="100" viewBox="0 0 100 100" fill="none" xmlns="http://www.w3.org/2000/svg">
<circle cx="50" cy="50" r="50" fill="#F6F7FB"/>
<path d="M38.069 37.7333C38.069 37.0677 38.6395 36.4973 39.305 36.4973H46.8161C47.4816 36.4973 48.0521 37.0677 48.0521 37.7333V42.1543H51.9502V37.7333C51.9502 37.0677 52.5207 36.4973 53.1862 36.4973H60.6972C61.3628 36.4973 61.9332 37.0677 61.9332 37.7333V42.1543H67.1624V34.4531C67.1624 33.0745 66.0215 31.9336 64.6429 31.9336H35.3594C33.9808 31.9336 32.8398 33.0745 32.8398 34.4531V42.1068H38.069V37.7333Z" fill="#CACCD2"/>
<path d="M67.2598 43.9609H32.747L27.8506 54.4193H72.1562L67.2598 43.9609Z" fill="#CACCD2"/>
<path d="M27.4219 56.2256V61.8826C27.4219 62.976 28.3251 63.8792 29.4185 63.8792H29.8463V66.0185C29.8463 67.1118 30.7495 68.0151 31.8429 68.0151C32.9363 68.0151 33.8395 67.1118 33.8395 66.0185V63.8792H66.1655V66.0185C66.1655 67.1118 67.0687 68.0151 68.1621 68.0151C69.2555 68.0151 70.1587 67.1118 70.1587 66.0185V63.8792H70.5866C71.6799 63.8792 72.5832 62.976 72.5832 61.8826V56.2256H27.4219Z" fill="#CACCD2"/>
</svg>
