<?xml version="1.0" encoding="utf-8"?>
<!-- Generator: Adobe Illustrator 25.0.0, SVG Export Plug-In . SVG Version: 6.00 Build 0)  -->
<svg version="1.1" id="Layer_1" xmlns="http://www.w3.org/2000/svg" xmlns:xlink="http://www.w3.org/1999/xlink" x="0px" y="0px"
	 viewBox="0 0 18 18" style="enable-background:new 0 0 18 18;" xml:space="preserve">
<style type="text/css">
	.st0{fill:#7589A7;}
	.st1{fill:none;stroke:#7589A7;stroke-width:1.5;stroke-linecap:round;}
	.st2{fill:none;stroke:#F5F5F6;stroke-linecap:round;}
</style>
<path class="st0" d="M8,2c3.7,0,6.8,2.5,8,6c-1.2,3.5-4.3,6-8,6c-3.7,0-6.8-2.5-8-6C1.2,4.5,4.3,2,8,2z M8,12c2.2,0,4-1.8,4-4
	c0-2.2-1.8-4-4-4C5.8,4,4,5.8,4,8C4,10.2,5.8,12,8,12z"/>
<path class="st0" d="M6.6,6.6c-0.8,0.8-0.8,2,0,2.8c0.8,0.8,2,0.8,2.8,0c0.8-0.8,0.8-2,0-2.8C8.6,5.8,7.4,5.8,6.6,6.6z"/>
<line class="st1" x1="16" y1="1.1" x2="1.1" y2="16"/>
<line class="st2" x1="17" y1="0.7" x2="0.7" y2="17"/>
</svg>
