<svg width="20" height="20" viewBox="0 0 20 20" fill="none" xmlns="http://www.w3.org/2000/svg">
<path fill-rule="evenodd" clip-rule="evenodd" d="M6.84477 1.68613C6.89517 1.53467 7.17463 1.3336 7.33463 1.3336H12.6677C12.8288 1.3336 13.1077 1.53467 13.1584 1.68667L13.9289 3.99877H6.07451L6.84477 1.68613ZM4.66838 3.99877L5.57997 1.26453C5.8117 0.569067 6.60157 0 7.33463 0H12.668C13.4018 0 14.1912 0.569066 14.4234 1.26507L15.3345 3.99877H18.6661C19.4 3.99877 20 4.59877 20 5.33237V7.9993L16.6661 9.33263V7.33263H13.9992V10.3993L12.476 11.0089C11.1147 11.5537 8.8856 11.5537 7.52426 11.0089L5.99946 10.3993V7.33263H3.33307V9.33263L0 7.9993V5.33237C0 4.59877 0.6 3.99877 1.33307 3.99877H4.66838ZM16.6661 11.1285V14H13.9992V12.1947L13.0947 12.5565C12.2445 12.8968 11.1445 13.0843 10 13.0843C8.85493 13.0843 7.75573 12.8971 6.90506 12.5565L5.99946 12.1947V14H3.33307V11.128L0 9.79441V17.3333C0 18.8 1.19973 20 2.6664 20H17.3331C18.8003 20 20 18.8 20 17.3333V9.79494L16.6661 11.1285Z" fill="url(#paint0_linear)"/>
<defs>
<linearGradient id="paint0_linear" x1="3.99076" y1="4.16665" x2="16.6053" y2="19.4705" gradientUnits="userSpaceOnUse">
<stop stop-color="#2D2942"/>
<stop offset="1" stop-color="#2D2942"/>
</linearGradient>
</defs>
</svg>
