<svg width="42" height="42" viewBox="0 0 42 42" fill="none" xmlns="http://www.w3.org/2000/svg">
<circle cx="21" cy="21" r="20" stroke="#F6F7FB" stroke-width="2"/>
<g clip-path="url(#clip0)">
<path d="M25.2438 15.3431L21.0012 19.5858L16.7586 15.3431C16.571 15.1556 16.3167 15.0503 16.0515 15.0503C15.7862 15.0503 15.5319 15.1556 15.3444 15.3431C15.1568 15.5307 15.0515 15.785 15.0515 16.0503C15.0515 16.3155 15.1568 16.5698 15.3444 16.7574L19.587 21L15.3444 25.2426C15.1568 25.4302 15.0515 25.6845 15.0515 25.9497C15.0515 26.215 15.1568 26.4693 15.3444 26.6569C15.5319 26.8444 15.7862 26.9497 16.0515 26.9497C16.3167 26.9497 16.571 26.8444 16.7586 26.6569L21.0012 22.4142L25.2438 26.6569C25.4314 26.8444 25.6857 26.9497 25.951 26.9497C26.2162 26.9497 26.4705 26.8444 26.6581 26.6569C26.8456 26.4693 26.951 26.215 26.951 25.9497C26.951 25.6845 26.8456 25.4302 26.6581 25.2426L22.4154 21L26.6581 16.7574C26.8456 16.5698 26.951 16.3155 26.951 16.0503C26.951 15.785 26.8456 15.5307 26.6581 15.3431C26.4705 15.1556 26.2162 15.0503 25.951 15.0503C25.6857 15.0503 25.4314 15.1556 25.2438 15.3431Z" fill="#ABA9B3"/>
</g>
<defs>
<clipPath id="clip0">
<rect width="24" height="24" fill="white" transform="translate(4.03125 21) rotate(-45)"/>
</clipPath>
</defs>
</svg>
