<svg width="20" height="16" viewBox="0 0 20 16" fill="none" xmlns="http://www.w3.org/2000/svg">
<path d="M0.586598 14.0065H7.3973C7.46937 14.1761 7.57374 14.335 7.71058 14.4732L8.78706 15.5612C9.06702 15.8441 9.43932 16 9.83533 16C10.2313 16 10.6036 15.8441 10.8836 15.5612L11.9601 14.4732C12.0969 14.335 12.2013 14.1762 12.2734 14.0066H19.4135C19.7374 14.0066 20 13.7412 20 13.4138C20 13.0865 19.7374 12.821 19.4135 12.821H12.2733C12.2012 12.6514 12.0968 12.4926 11.96 12.3544L10.8835 11.2664C10.6035 10.9834 10.2312 10.8276 9.83525 10.8276C9.43924 10.8276 9.06698 10.9835 8.78698 11.2664L7.7105 12.3544C7.5737 12.4926 7.46929 12.6514 7.39722 12.821H0.586558C0.262654 12.821 3.76706e-05 13.0864 3.76706e-05 13.4138C3.76706e-05 13.7412 0.262654 14.0065 0.586598 14.0065ZM8.53995 13.1926L9.61643 12.1046C9.67486 12.0456 9.75256 12.013 9.83525 12.013C9.91795 12.013 9.99564 12.0456 10.0541 12.1046L11.1306 13.1926C11.2512 13.3146 11.2512 13.513 11.1306 13.6349L10.0541 14.7228C9.99564 14.7819 9.91795 14.8144 9.83525 14.8144C9.75256 14.8144 9.67486 14.7819 9.61643 14.7228L8.53995 13.6349C8.41929 13.5129 8.41929 13.3145 8.53995 13.1926Z" fill="#2C2941"/>
<path d="M0.586637 8.51369H12.027C12.1004 8.68574 12.2061 8.84393 12.3412 8.98037L13.4176 10.0683C13.6976 10.3513 14.0699 10.5071 14.4659 10.5071C14.8619 10.5071 15.2342 10.3513 15.5142 10.0683L16.5906 8.98037C16.7274 8.84212 16.8319 8.68329 16.9039 8.51369H19.4135C19.7374 8.51369 20 8.24832 20 7.92096C20 7.59361 19.7374 7.32819 19.4135 7.32819H16.9038C16.8318 7.1586 16.7274 6.99977 16.5906 6.86152L15.5141 5.77357C15.2341 5.49059 14.8618 5.33473 14.4658 5.33473C14.0698 5.33473 13.6976 5.49059 13.4175 5.77357L12.3411 6.86148C12.2061 6.99792 12.1003 7.15611 12.027 7.32816H0.586558C0.262654 7.32816 3.76706e-05 7.59357 3.76706e-05 7.92093C7.67329e-05 8.24828 0.262733 8.51369 0.586637 8.51369ZM13.1706 7.69977L14.247 6.61186C14.3055 6.5528 14.3832 6.52027 14.4659 6.52027C14.5485 6.52027 14.6262 6.5528 14.6847 6.61186L15.7612 7.69981C15.8818 7.82175 15.8818 8.02017 15.7612 8.14212L14.6847 9.23007C14.6262 9.28913 14.5485 9.32166 14.4659 9.32166C14.3832 9.32166 14.3055 9.28913 14.247 9.23007L13.1706 8.14212C13.1121 8.08306 13.08 8.00454 13.08 7.921C13.08 7.83743 13.1121 7.75887 13.1706 7.69977Z" fill="#2C2941"/>
<path d="M0.586637 3.17893H3.48728C3.55935 3.34853 3.66373 3.50735 3.80056 3.6456L4.87704 4.73355C5.157 5.01653 5.5293 5.17239 5.92532 5.17239C6.32129 5.17239 6.69355 5.01653 6.97359 4.73359L8.05007 3.64564C8.18687 3.50739 8.29128 3.34857 8.36335 3.17897H19.4135C19.7374 3.17897 20 2.91355 20 2.5862C20 2.25884 19.7374 1.99343 19.4135 1.99343H8.36323C8.29116 1.82383 8.18679 1.66501 8.04995 1.52675L6.97347 0.438804C6.69348 0.155822 6.32117 4.96349e-07 5.9252 4.96349e-07C5.52919 4.96349e-07 5.15692 0.155861 4.87692 0.438804L3.80045 1.52675C3.66365 1.66501 3.55924 1.82383 3.48717 1.99343H0.586519C0.262615 1.99343 -4.76158e-07 2.25884 -4.76158e-07 2.5862C7.76484e-05 2.91355 0.262733 3.17893 0.586637 3.17893ZM4.62993 2.365L5.70641 1.27705C5.76485 1.21799 5.84254 1.18546 5.92524 1.18546C6.00793 1.18546 6.08563 1.21799 6.14407 1.27705L7.22054 2.365C7.34121 2.48695 7.34121 2.68537 7.22054 2.80732L6.14407 3.89522C6.08563 3.95428 6.00793 3.98681 5.92524 3.98681C5.84254 3.98681 5.76485 3.95428 5.70641 3.89522L4.62993 2.80728C4.50927 2.68537 4.50927 2.48695 4.62993 2.365Z" fill="#2C2941"/>
</svg>
