<svg width="42" height="42" viewBox="0 0 42 42" fill="none" xmlns="http://www.w3.org/2000/svg">
<circle cx="21" cy="21" r="21" fill="#F6F7FB"/>
<path d="M21.72 22.9905L21.6 23.015V23.1375V24.375C21.6 24.6336 21.4973 24.8816 21.3144 25.0644C21.1316 25.2473 20.8836 25.35 20.625 25.35C20.3664 25.35 20.1184 25.2473 19.9356 25.0644C19.7527 24.8816 19.65 24.6336 19.65 24.375V22.125C19.65 21.8664 19.7527 21.6184 19.9356 21.4356C20.1184 21.2527 20.3664 21.15 20.625 21.15C21.3222 21.15 22.0037 20.9433 22.5834 20.5559C23.1631 20.1686 23.6149 19.6181 23.8817 18.974C24.1485 18.3298 24.2183 17.6211 24.0823 16.9373C23.9463 16.2535 23.6105 15.6254 23.1176 15.1324C22.6246 14.6395 21.9965 14.3037 21.3127 14.1677C20.6289 14.0317 19.9202 14.1015 19.276 14.3683C18.6319 14.6351 18.0814 15.0869 17.6941 15.6666C17.3067 16.2463 17.1 16.9278 17.1 17.625C17.1 17.8836 16.9973 18.1316 16.8144 18.3144C16.6316 18.4973 16.3836 18.6 16.125 18.6C15.8664 18.6 15.6184 18.4973 15.4356 18.3144C15.2527 18.1316 15.15 17.8836 15.15 17.625C15.15 16.1729 15.7268 14.7804 16.7536 13.7536C17.7804 12.7268 19.1729 12.15 20.625 12.15C22.0771 12.15 23.4696 12.7268 24.4964 13.7536C25.5232 14.7804 26.1 16.1729 26.1 17.625H26.25L26.1 17.625C26.1003 18.8872 25.6644 20.1107 24.8663 21.0884C24.0681 22.0662 22.9567 22.7381 21.72 22.9905Z" fill="#2D2942" stroke="#F6F7FB" stroke-width="0.3"/>
<path d="M21.125 30C21.7463 30 22.25 29.4963 22.25 28.875C22.25 28.2537 21.7463 27.75 21.125 27.75C20.5037 27.75 20 28.2537 20 28.875C20 29.4963 20.5037 30 21.125 30Z" fill="#2D2942"/>
</svg>
