<svg width="40" height="39" viewBox="0 0 40 39" fill="none" xmlns="http://www.w3.org/2000/svg">
<g opacity="0.5">
<path d="M22.25 14H17.75C15.6793 14 14 15.6793 14 17.75V22.25C14 24.3207 15.6793 26 17.75 26H22.25C24.3207 26 26 24.3207 26 22.25V17.75C26 15.6793 24.3207 14 22.25 14ZM24.875 22.25C24.875 23.6975 23.6975 24.875 22.25 24.875H17.75C16.3025 24.875 15.125 23.6975 15.125 22.25V17.75C15.125 16.3025 16.3025 15.125 17.75 15.125H22.25C23.6975 15.125 24.875 16.3025 24.875 17.75V22.25Z" fill="#2C2941"/>
<path d="M20 17C18.3432 17 17 18.3432 17 20C17 21.6568 18.3432 23 20 23C21.6568 23 23 21.6568 23 20C23 18.3432 21.6568 17 20 17ZM20 21.875C18.9665 21.875 18.125 21.0335 18.125 20C18.125 18.9658 18.9665 18.125 20 18.125C21.0335 18.125 21.875 18.9658 21.875 20C21.875 21.0335 21.0335 21.875 20 21.875Z" fill="#2C2941"/>
<path d="M23.225 17.1747C23.4458 17.1747 23.6248 16.9958 23.6248 16.775C23.6248 16.5542 23.4458 16.3753 23.225 16.3753C23.0042 16.3753 22.8253 16.5542 22.8253 16.775C22.8253 16.9958 23.0042 17.1747 23.225 17.1747Z" fill="#2C2941"/>
</g>
<rect opacity="0.5" x="0.5" y="0.5" width="39" height="38" rx="9.5" stroke="#2C2941"/>
</svg>
