<svg width="62" height="62" viewBox="0 0 62 62" fill="none" xmlns="http://www.w3.org/2000/svg">
<circle cx="31" cy="31" r="31" fill="#F6F7FB"/>
<g opacity="0.7">
<path d="M37.85 18H24.35C23.54 18 23 18.675 23 19.35L23 28H39.2V19.35C39.2 18.675 38.66 18 37.85 18ZM28.4 24.75H25.7V20.7H28.4V24.75Z" fill="#CACCD2"/>
<path d="M23 42.3C23 43.11 23.54 43.65 24.35 43.65V45H27.05V43.65H35.15V45H37.85V43.65C38.66 43.65 39.2 43.11 39.2 42.3V29.5001H23V42.3ZM25.7 32.85H28.4V38.25H25.7V32.85Z" fill="#CACCD2"/>
</g>
</svg>
