<?xml version="1.0" encoding="utf-8"?>
<!-- Generator: Adobe Illustrator 25.0.0, SVG Export Plug-In . SVG Version: 6.00 Build 0)  -->
<svg version="1.1" id="Layer_1" xmlns="http://www.w3.org/2000/svg" xmlns:xlink="http://www.w3.org/1999/xlink" x="0px" y="0px"
	 viewBox="0 0 52 52" style="enable-background:new 0 0 52 52;" xml:space="preserve">
<style type="text/css">
	.st0{fill:#FFFFFF;}
	.st1{fill:#E52E2E;}
</style>
<g>
	<path class="st0" d="M15,8h22c2.8,0,5,2.2,5,5v22c0,2.8-2.2,5-5,5H15c-2.8,0-5-2.2-5-5V13C10,10.2,12.2,8,15,8z"/>
</g>
<path class="st1" d="M33.6,18.6c-0.9-1-2.2-1.6-3.6-1.6c-1,0-2,0.3-2.8,1c-0.4,0.3-0.8,0.7-1.1,1.2c-0.3-0.5-0.7-0.9-1.1-1.2
	c-0.8-0.6-1.8-1-2.8-1c-1.4,0-2.7,0.6-3.6,1.6c-0.9,1-1.4,2.4-1.4,3.8c0,1.5,0.6,2.9,1.8,4.4c1.1,1.3,2.7,2.6,4.5,4.2
	c0.6,0.5,1.3,1.1,2,1.8c0.2,0.2,0.4,0.3,0.7,0.3c0.3,0,0.5-0.1,0.7-0.3c0.7-0.6,1.4-1.2,2.1-1.8c1.8-1.5,3.4-2.9,4.5-4.2
	c1.2-1.5,1.8-2.9,1.8-4.4C35,20.9,34.5,19.6,33.6,18.6z"/>
</svg>
