<?xml version="1.0" encoding="utf-8"?>
<!-- Generator: Adobe Illustrator 25.0.0, SVG Export Plug-In . SVG Version: 6.00 Build 0)  -->
<svg version="1.1" id="Layer_1" xmlns="http://www.w3.org/2000/svg" xmlns:xlink="http://www.w3.org/1999/xlink" x="0px" y="0px"
	 viewBox="0 0 62 62" style="enable-background:new 0 0 62 62;" xml:space="preserve">
<style type="text/css">
	.st0{fill:#7589A7;}
	.st1{fill-rule:evenodd;clip-rule:evenodd;fill:#FFFFFF;}
</style>
<circle class="st0" cx="31" cy="31" r="31"/>
<path class="st1" d="M42.9,23.9c-2.4,0.4-3.8,2.6-3.8,5v4.4H21.2v-1.7c0-1.9-1.1-3.7-3.1-4v-3.7C18.2,18.8,42.9,18.6,42.9,23.9z
	 M40.5,40v0.3c0,0.9,1.4,0.9,1.4,0V40c0.9-0.1,1.6-0.8,1.6-1.7v-6.7c4.6,0,4.6-6.7,0-6.7c-2.1,0-3.4,1.9-3.4,4v5.4h-20v-2.7
	c0-1.6-0.9-3-2.5-3c-3.6,0-3.6,5.2,0,5.2v5.1c0,0.7,0.5,1.3,1.2,1.3h1.2v0.3c0,0.9,1.4,0.9,1.4,0V40H40.5z"/>
</svg>
