<svg width="62" height="62" viewBox="0 0 62 62" fill="none" xmlns="http://www.w3.org/2000/svg">
<circle cx="31" cy="31" r="31" fill="#F6F7FB"/>
<g opacity="0.7">
<path fill-rule="evenodd" clip-rule="evenodd" d="M42.949 23.8681C40.5032 24.2647 39.1783 26.4465 39.1783 28.8267V33.1902H21.242V31.5043C21.242 29.62 20.121 27.8349 18.1847 27.5374V23.8681C18.1847 18.8103 42.949 18.612 42.949 23.8681ZM40.5032 40.0331V40.3306C40.5032 41.2231 41.9299 41.2231 41.9299 40.3306V40.0331C42.8471 39.9339 43.5605 39.2397 43.5605 38.3472V31.6035C48.1465 31.6035 48.1465 24.8598 43.5605 24.8598C41.4204 24.8598 40.1975 26.744 40.1975 28.8267V34.1819H20.2229V31.5043C20.2229 29.9175 19.3057 28.5291 17.6752 28.5291C14.1083 28.5291 14.1083 33.6861 17.6752 33.6861V38.7438C17.6752 39.438 18.1847 40.0331 18.8981 40.0331H20.121V40.3306C20.121 41.2231 21.5478 41.2231 21.5478 40.3306V40.0331H40.5032Z" fill="#CACCD2"/>
</g>
</svg>
