<svg width="109" height="35" viewBox="0 0 109 35" fill="none" xmlns="http://www.w3.org/2000/svg">
<circle cx="17.5" cy="17.5" r="17.5" fill="url(#paint0_linear)"/>
<path fill-rule="evenodd" clip-rule="evenodd" d="M17.1514 9.53223C17.2396 9.46146 17.3613 9.46084 17.4473 9.52457C18.2534 10.1217 19.689 11.1971 20.793 12.0886L20.7951 12.0903L20.7971 12.0919C20.9879 12.2437 21.1755 12.3908 21.3584 12.5341C21.9602 13.0057 22.5111 13.4374 22.9563 13.8691C23.1679 14.0744 23.3314 14.2577 23.4544 14.4214H23.4446H23.4277H23.4107H23.3937H23.3768H23.3598H23.3428H23.3258H23.3088H23.2918H23.2748H23.2578H23.2407H23.2237H23.2067H23.1897H23.1726H23.1556H23.1386H23.1215H23.1045H23.0874H23.0704H23.0533H23.0363H23.0192H23.0021H22.9851H22.968H22.951H22.9339H22.9168H22.8998H22.8827H22.8657H22.8486H22.8315H22.8145H22.7974H22.7803H22.7633H22.7462H22.7292H22.7121H22.6951H22.678H22.661H22.6439H22.6269H22.6099H22.5928H22.5758H22.5588H22.5417H22.5247H22.5077H22.4907H22.4737H22.4567H22.4397H22.4227H22.4057H22.3887H22.3717H22.3548H22.3378H22.3209H22.3039H22.287H22.27H22.2531H22.2362H22.2193H22.2024H22.1855H22.1686H22.1517H22.1348H22.1179H22.1011H22.0842H22.0674H22.0506H22.0338H22.017H22.0002H21.9834H21.9666H21.9498H21.9331H21.9163H21.8996H21.8829H21.8662H21.8495H21.8328H21.8161H21.7995H21.7828H21.7662H21.7495H21.7329H21.7163H21.6998H21.6832H21.6666H21.6501H21.6336H21.6171H21.6006H21.5841H21.5676H21.5512H21.5348H21.5183H21.5019H21.4855H21.4692H21.4528H21.4365H21.4202H21.4039H21.3876H21.3713H21.3551H21.3388H21.3226H21.3064H21.2903H21.2741H21.258H21.2419H21.2258H21.2097H21.1936H21.1776H21.1616H21.1456H21.1296H21.1136H21.0977H21.0818H21.0659H21.05H21.0342H21.0184H21.0026H20.9868H20.971H20.9553H20.9396H20.9239H20.9082H20.8926H20.8769H20.8614H20.8458H20.8302H20.8147H20.7992H20.7837H20.7683H20.7529H20.7375H20.7221H20.7068H20.6914H20.6761H20.6609H20.6456H20.6304H20.6152H20.6001H20.585H20.5699H20.5548H20.5397H20.5247H20.5097H20.4948H20.4798H20.4649H20.4501H20.4352H20.4204H20.4056H20.3909H20.3762H20.3615H20.3468H20.3322H20.3176H20.303H20.2885H20.274H20.2595H20.245H20.2306H20.2163H20.2019H20.1876H20.1733H20.1591H20.1449H20.1307H20.1166H20.1024H20.0884H20.0743H20.0603H20.0463H20.0324H20.0185H20.0046H19.9908H19.977H19.9633H19.9495H19.9359H19.9222H19.9086H19.895H19.8815H19.868H19.8545H19.8411H19.8277H19.8144H19.8011H19.7878H19.7746H19.7614H19.7482H19.7351H19.722H19.709H19.696H19.683H19.6701H19.6573H19.6444H19.6316H19.6189H19.6062H19.5935H19.5809H19.5683H19.5558H19.5433H19.5308H19.5184H19.506H19.4937H19.4814H19.4692H19.457H19.4448H19.4327H19.4207H19.4086H19.3967H19.3847H19.3728H19.361H19.3492H19.3375H19.3258H19.3141H19.3025H19.2909H19.2794H19.268H19.2565H19.2452H19.2338H19.2226H19.2113H19.2001H19.189H19.1779H19.1669H19.1559H19.145H19.1341H19.1232H19.1124H19.1017H19.091H19.0804H19.0698H19.0592H19.0487H19.0383H19.0279H19.0176H19.0073H18.9971H18.9869H18.9768H18.9667H18.9567H18.9467H18.9368H18.9269H18.9171H18.9074H18.8977H18.888H18.8784H18.8689H18.8594H18.85H18.8406H18.8313H18.822H18.8128H18.8037H18.7946H18.7855H18.7766H18.7676H18.7588H18.7499H18.7412H18.7325H18.7239H18.7153H18.7067H18.6983H18.6899H18.6815H18.6732H18.665H18.6568H18.6487H18.6407H18.6327H18.6247H18.6169H18.6091H18.6013H18.5936H18.586H18.5784H18.5709H18.5635H18.5561H18.5488H18.5415H18.5343H18.5272H18.5201H18.5131H18.5062H18.4993H18.4925H18.4857H18.479H18.4724H18.4658H18.4593H18.4529H18.4465H18.4402H18.434H18.4278H18.4217H18.4157H18.4097H18.4038H18.3979H18.3922H18.3865H18.3808H18.3752H18.3697H18.3643H18.3589H18.3536H18.3484H18.3432H18.3381H18.3331H18.3282H18.3233H18.3184H18.3137H18.309H18.3044H18.2999H18.2954H18.291H18.2867H18.2824H18.2782H18.2741H18.2701H18.2661H18.2622H18.2584H18.2546H18.251H18.2473H18.2438H18.2404H18.237H18.2337H18.2304H18.2272H18.2242H18.2211H18.2182H18.2153H18.2125H18.2098H18.2072H18.2046H18.2021H18.1997H18.1974H18.1951H18.1929H18.1908H18.1888H18.1868H18.185H18.1832H18.1814H18.1798H18.1782H18.1767H18.1753H18.174H18.1728H18.1716H18.1705H18.1695H18.1685H18.1677H18.1669H18.1662H18.1656H18.1651H18.1646H18.1643H18.164H18.1638H18.1637C18.1637 14.4214 18.1636 14.4214 18.1636 15.144C18.1636 15.8666 18.1637 15.8666 18.1637 15.8666H18.1638H18.164H18.1643H18.1646H18.1651H18.1656H18.1662H18.1669H18.1677H18.1685H18.1695H18.1705H18.1716H18.1728H18.174H18.1753H18.1767H18.1782H18.1798H18.1814H18.1832H18.185H18.1868H18.1888H18.1908H18.1929H18.1951H18.1974H18.1997H18.2021H18.2046H18.2072H18.2098H18.2125H18.2153H18.2182H18.2211H18.2242H18.2272H18.2304H18.2337H18.237H18.2404H18.2438H18.2473H18.251H18.2546H18.2584H18.2622H18.2661H18.2701H18.2741H18.2782H18.2824H18.2867H18.291H18.2954H18.2999H18.3044H18.309H18.3137H18.3184H18.3233H18.3282H18.3331H18.3381H18.3432H18.3484H18.3536H18.3589H18.3643H18.3697H18.3752H18.3808H18.3865H18.3922H18.3979H18.4038H18.4097H18.4157H18.4217H18.4278H18.434H18.4402H18.4465H18.4529H18.4593H18.4658H18.4724H18.479H18.4857H18.4925H18.4993H18.5062H18.5131H18.5201H18.5272H18.5343H18.5415H18.5488H18.5561H18.5635H18.5709H18.5784H18.586H18.5936H18.6013H18.6091H18.6169H18.6247H18.6327H18.6407H18.6487H18.6568H18.665H18.6732H18.6815H18.6899H18.6983H18.7067H18.7153H18.7239H18.7325H18.7412H18.7499H18.7588H18.7676H18.7766H18.7855H18.7946H18.8037H18.8128H18.822H18.8313H18.8406H18.85H18.8594H18.8689H18.8784H18.888H18.8977H18.9074H18.9171H18.9269H18.9368H18.9467H18.9567H18.9667H18.9768H18.9869H18.9971H19.0073H19.0176H19.0279H19.0383H19.0487H19.0592H19.0698H19.0804H19.091H19.1017H19.1124H19.1232H19.1341H19.145H19.1559H19.1669H19.1779H19.189H19.2001H19.2113H19.2226H19.2338H19.2452H19.2565H19.268H19.2794H19.2909H19.3025H19.3141H19.3258H19.3375H19.3492H19.361H19.3728H19.3847H19.3967H19.4086H19.4207H19.4327H19.4448H19.457H19.4692H19.4814H19.4937H19.506H19.5184H19.5308H19.5433H19.5558H19.5683H19.5809H19.5935H19.6062H19.6189H19.6316H19.6444H19.6573H19.6701H19.683H19.696H19.709H19.722H19.7351H19.7482H19.7614H19.7746H19.7878H19.8011H19.8144H19.8277H19.8411H19.8545H19.868H19.8815H19.895H19.9086H19.9222H19.9359H19.9495H19.9633H19.977H19.9908H20.0046H20.0185H20.0324H20.0463H20.0603H20.0743H20.0884H20.1024H20.1166H20.1307H20.1449H20.1591H20.1733H20.1876H20.2019H20.2163H20.2306H20.245H20.2595H20.274H20.2885H20.303H20.3176H20.3322H20.3468H20.3615H20.3762H20.3909H20.4056H20.4204H20.4352H20.4501H20.4649H20.4798H20.4948H20.5097H20.5247H20.5397H20.5548H20.5699H20.585H20.6001H20.6152H20.6304H20.6456H20.6609H20.6761H20.6914H20.7068H20.7221H20.7375H20.7529H20.7683H20.7837H20.7992H20.8147H20.8302H20.8458H20.8614H20.8769H20.8926H20.9082H20.9239H20.9396H20.9553H20.971H20.9868H21.0026H21.0184H21.0342H21.05H21.0659H21.0818H21.0977H21.1136H21.1296H21.1456H21.1616H21.1776H21.1936H21.2097H21.2258H21.2419H21.258H21.2741H21.2903H21.3064H21.3226H21.3388H21.3551H21.3713H21.3876H21.4039H21.4202H21.4365H21.4528H21.4692H21.4855H21.5019H21.5183H21.5348H21.5512H21.5676H21.5841H21.6006H21.6171H21.6336H21.6501H21.6666H21.6832H21.6998H21.7163H21.7329H21.7495H21.7662H21.7828H21.7995H21.8161H21.8328H21.8495H21.8662H21.8829H21.8996H21.9163H21.9331H21.9498H21.9666H21.9834H22.0002H22.017H22.0338H22.0506H22.0674H22.0842H22.1011H22.1179H22.1348H22.1517H22.1686H22.1855H22.2024H22.2193H22.2362H22.2531H22.27H22.287H22.3039H22.3209H22.3378H22.3548H22.3717H22.3887H22.4057H22.4227H22.4397H22.4567H22.4737H22.4907H22.5077H22.5247H22.5417H22.5588H22.5758H22.5928H22.6099H22.6269H22.6439H22.661H22.678H22.6951H22.7121H22.7292H22.7462H22.7633H22.7803H22.7974H22.8145H22.8315H22.8486H22.8657H22.8827H22.8998H22.9168H22.9339H22.951H22.968H22.9851H23.0021H23.0192H23.0363H23.0533H23.0704H23.0874H23.1045H23.1215H23.1386H23.1556H23.1726H23.1897H23.2067H23.2237H23.2407H23.2578H23.2748H23.2918H23.3088H23.3258H23.3428H23.3598H23.3768H23.3937H23.4107H23.4277H23.4446H23.4616H23.4785H23.4955H23.5124H23.5293H23.5463H23.5632H23.5801H23.597H23.6139H23.6307H23.6476H23.6645H23.6813H23.6982H23.715H23.7318H23.7486H23.7654H23.7822H23.799H23.8158H23.8325H23.8493H23.866H23.8828H23.8995H23.9162H23.9329H23.9495H23.9662H23.9829H23.9995H24.0161H24.0328H24.0494H24.0659H24.0825H24.0991H24.1156H24.1322H24.1487H24.1652H24.1817H24.1981H24.2146H24.231H24.2475H24.2639H24.2803H24.2967H24.313H24.3294H24.3457H24.362H24.3783H24.3946H24.4108H24.4271H24.4433H24.4595H24.4757H24.4918H24.508H25.2457V15.144C25.2457 14.2256 24.6222 13.4511 23.9944 12.8422C23.488 12.3511 22.8516 11.8527 22.2375 11.3718C22.0653 11.237 21.8949 11.1035 21.7295 10.9719C20.6002 10.06 19.1447 8.97001 18.3373 8.37192C17.7029 7.90198 16.8272 7.92435 16.2166 8.41408L10.3847 13.0916C9.9862 13.4112 9.75392 13.8884 9.75391 14.3949C9.7539 15.2032 9.7539 16.9515 9.75394 18.5161V18.526V18.5359V18.5457V18.5556V18.5655V18.5753V18.5852V18.5951V18.605V18.6148V18.6247V18.6346V18.6445V18.6543V18.6642V18.6741V18.684V18.6938V18.7037V18.7136V18.7235V18.7334V18.7433V18.7531V18.763V18.7729V18.7828V18.7927V18.8026V18.8125V18.8223V18.8322V18.8421V18.852V18.8619V18.8718V18.8817V18.8916V18.9014V18.9113V18.9212V18.9311V18.941V18.9509V18.9608V18.9707V18.9806V18.9904V19.0003V19.0102V19.0201V19.03V19.0399V19.0498V19.0596V19.0695V19.0794V19.0893V19.0992V19.1091V19.1189V19.1288V19.1387V19.1486V19.1585V19.1683V19.1782V19.1881V19.198V19.2078V19.2177V19.2276V19.2374V19.2473V19.2572V19.267V19.2769V19.2868V19.2966V19.3065V19.3164V19.3262V19.3361V19.3459V19.3558V19.3656V19.3755V19.3853V19.3952V19.405V19.4149V19.4247V19.4346V19.4444V19.4542V19.4641V19.4739V19.4838V19.4936V19.5034V19.5132V19.5231V19.5329V19.5427V19.5525V19.5623V19.5721V19.582V19.5918V19.6016V19.6114V19.6212V19.631V19.6408V19.6506V19.6604V19.6701V19.6799V19.6897V19.6995V19.7093V19.7191V19.7288V19.7386V19.7484V19.7581V19.7679V19.7776V19.7874V19.7972V19.8069V19.8167V19.8264V19.8361V19.8459V19.8556V19.8653V19.8751V19.8848V19.8945V19.9042V19.9139V19.9236V19.9334V19.9431V19.9528V19.9625V19.9721V19.9818V19.9915V20.0012V20.0109V20.0206V20.0302V20.0399V20.0496V20.0592V20.0689V20.0785V20.0882V20.0978V20.1074V20.1171V20.1267V20.1363V20.146V20.1556V20.1652V20.1748V20.1844V20.194V20.2036V20.2132V20.2228V20.2324V20.2419V20.2515V20.2611V20.2706V20.2802V20.2898V20.2993V20.3088V20.3184V20.3279V20.3375V20.347V20.3565V20.366V20.3755V20.385V20.3945V20.404V20.4135V20.423V20.4325V20.442V20.4514V20.4609V20.4703V20.4798V20.4892V20.4987V20.5081V20.5176V20.527V20.5364V20.5458V20.5552V20.5646V20.574V20.5834V20.5928V20.6022V20.6115V20.6209V20.6303V20.6396V20.649V20.6583V20.6677V20.677V20.6863V20.6956V20.705V20.7143V20.7236V20.7329V20.7421V20.7514V20.7607V20.77V20.7792V20.7885V20.7977V20.807V20.8162V20.8254V20.8347V20.8439V20.8531V20.8623V20.8715V20.8807V20.8899V20.899V20.9082V20.9174V20.9265V20.9357V20.9448V20.9539V20.9631V20.9722V20.9813V20.9904V20.9995V21.0086V21.0177V21.0267V21.0358V21.0449V21.0539V21.063V21.072V21.081V21.09V21.0991V21.1081V21.1171V21.1261V21.135V21.144V21.153V21.1619V21.1709V21.1798V21.1888V21.1977V21.2066V21.2155V21.2244V21.2333V21.2422V21.2511V21.26V21.2688V21.2777V21.2865V21.2954V21.3042V21.313V21.3218V21.3306V21.3394V21.3482V21.357V21.3658V21.3745V21.3833V21.392V21.4008V21.4095V21.4182V21.4269V21.4356V21.4443V21.453V21.4616V21.4703V21.479V21.4876V21.4962V21.5049V21.5135V21.5221V21.5307V21.5393V21.5478V21.5564V21.565V21.5735V21.5821V21.5906V21.5991V21.6076V21.6161V21.6246V21.6331V21.6416V21.6501V21.6585V21.6669V21.6754V21.6838V21.6922V21.7006V21.709V21.7174V21.7258V21.7341V21.7425V21.7508V21.7592V21.7675V21.7758V21.7841V21.7924V21.8007V21.809V21.8172V21.8255V21.8337V21.8419V21.8502V21.8584V21.8666V21.8748V21.8829V21.8911V21.8993V21.9074V21.9155V21.9237V21.9318V21.9399V21.948V21.956V21.9641V21.9722V21.9802V21.9882V21.9963V22.0043V22.0123V22.0203V22.0282V22.0362V22.0442V22.0521V22.06V22.068V22.0759V22.0838V22.0917V22.0995V22.1074V22.1152V22.1231V22.1309V22.1387V22.1465V22.1543V22.1621V22.1699V22.1776V22.1854V22.1931V22.2008V22.2085V22.2162V22.2239V22.2316V22.2392V22.2469V22.2545V22.2621V22.2697V22.2773V22.2849V22.2925V22.3001V22.3076V22.3151V22.3227V22.3302V22.3377V22.3452V22.3526V22.3601V22.3675V22.375V22.3824V22.3898V22.3972V22.4046V22.4119V22.4193V22.4266V22.434V22.4413V22.4486V22.4559V22.4632V22.4704V22.4777V22.4849V22.4921V22.4993V22.5065V22.5137V22.5209V22.528V22.5352V22.5423V22.5494V22.5565V22.5636V22.5707V22.5777V22.5848V22.5918V22.5988V22.6058V22.6128V22.6198V22.6268V22.6337V22.6407V22.6476V22.6545V22.6614V22.6683V22.6751V22.682V22.6888V22.6956V22.7024V22.7092V22.716V22.7228V22.7295V22.7362V22.743V22.7497V22.7564V22.763V22.7697V22.7763V22.783V22.7896V22.7962V22.8028V22.8093V22.8159V22.8224V22.829V22.8355V22.842V22.8485V22.8549V22.8614V22.8678V22.8742V22.8806V22.887V22.8934V22.8997V22.9061V22.9124V22.9187V22.925V22.9313V22.9376V22.9438V22.9501V22.9563V22.9625V22.9687V22.9748V22.981V22.9871C9.75394 23.9263 10.5368 24.6818 11.4934 24.672L23.5425 24.5477C24.486 24.538 25.2457 23.786 25.2457 22.8618V21.6955H23.7703V22.8618C23.7703 22.9938 23.6617 23.1012 23.527 23.1026L11.4779 23.2269C11.3399 23.2283 11.2294 23.1201 11.2294 22.9871V22.981V22.9748V22.9687V22.9625V22.9563V22.9501V22.9438V22.9376V22.9313V22.925V22.9187V22.9124V22.9061V22.8997V22.8934V22.887V22.8806V22.8742V22.8678V22.8614V22.8549V22.8485V22.842V22.8355V22.829V22.8224V22.8159V22.8093V22.8028V22.7962V22.7896V22.783V22.7763V22.7697V22.763V22.7564V22.7497V22.743V22.7362V22.7295V22.7228V22.716V22.7092V22.7024V22.6956V22.6888V22.682V22.6751V22.6683V22.6614V22.6545V22.6476V22.6407V22.6337V22.6268V22.6198V22.6128V22.6058V22.5988V22.5918V22.5848V22.5777V22.5707V22.5636V22.5565V22.5494V22.5423V22.5352V22.528V22.5209V22.5137V22.5065V22.4993V22.4921V22.4849V22.4777V22.4704V22.4632V22.4559V22.4486V22.4413V22.434V22.4266V22.4193V22.4119V22.4046V22.3972V22.3898V22.3824V22.375V22.3675V22.3601V22.3526V22.3452V22.3377V22.3302V22.3227V22.3151V22.3076V22.3001V22.2925V22.2849V22.2773V22.2697V22.2621V22.2545V22.2469V22.2392V22.2316V22.2239V22.2162V22.2085V22.2008V22.1931V22.1854V22.1776V22.1699V22.1621V22.1543V22.1465V22.1387V22.1309V22.1231V22.1152V22.1074V22.0995V22.0917V22.0838V22.0759V22.068V22.06V22.0521V22.0442V22.0362V22.0282V22.0203V22.0123V22.0043V21.9963V21.9882V21.9802V21.9722V21.9641V21.956V21.948V21.9399V21.9318V21.9237V21.9155V21.9074V21.8993V21.8911V21.8829V21.8748V21.8666V21.8584V21.8502V21.8419V21.8337V21.8255V21.8172V21.809V21.8007V21.7924V21.7841V21.7758V21.7675V21.7592V21.7508V21.7425V21.7341V21.7258V21.7174V21.709V21.7006V21.6922V21.6838V21.6754V21.6669V21.6585V21.6501V21.6416V21.6331V21.6246V21.6161V21.6076V21.5991V21.5906V21.5821V21.5735V21.565V21.5564V21.5478V21.5393V21.5307V21.5221V21.5135V21.5049V21.4962V21.4876V21.479V21.4703V21.4616V21.453V21.4443V21.4356V21.4269V21.4182V21.4095V21.4008V21.392V21.3833V21.3745V21.3658V21.357V21.3482V21.3394V21.3306V21.3218V21.313V21.3042V21.2954V21.2865V21.2777V21.2688V21.26V21.2511V21.2422V21.2333V21.2244V21.2155V21.2066V21.1977V21.1888V21.1798V21.1709V21.1619V21.153V21.144V21.135V21.1261V21.1171V21.1081V21.0991V21.09V21.081V21.072V21.063V21.0539V21.0449V21.0358V21.0267V21.0177V21.0086V20.9995V20.9904V20.9813V20.9722V20.9631V20.9539V20.9448V20.9357V20.9265V20.9174V20.9082V20.899V20.8899V20.8807V20.8715V20.8623V20.8531V20.8439V20.8347V20.8254V20.8162V20.807V20.7977V20.7885V20.7792V20.77V20.7607V20.7514V20.7421V20.7329V20.7236V20.7143V20.705V20.6956V20.6863V20.677V20.6677V20.6583V20.649V20.6396V20.6303V20.6209V20.6115V20.6022V20.5928V20.5834V20.574V20.5646V20.5552V20.5458V20.5364V20.527V20.5176V20.5081V20.4987V20.4892V20.4798V20.4703V20.4609V20.4514V20.442V20.4325V20.423V20.4135V20.404V20.3945V20.385V20.3755V20.366V20.3565V20.347V20.3375V20.3279V20.3184V20.3088V20.2993V20.2898V20.2802V20.2706V20.2611V20.2515V20.2419V20.2324V20.2228V20.2132V20.2036V20.194V20.1844V20.1748V20.1652V20.1556V20.146V20.1363V20.1267V20.1171V20.1074V20.0978V20.0882V20.0785V20.0689V20.0592V20.0496V20.0399V20.0302V20.0206V20.0109V20.0012V19.9915V19.9818V19.9721V19.9625V19.9528V19.9431V19.9334V19.9236V19.9139V19.9042V19.8945V19.8848V19.8751V19.8653V19.8556V19.8459V19.8361V19.8264V19.8167V19.8069V19.7972V19.7874V19.7776V19.7679V19.7581V19.7484V19.7386V19.7288V19.7191V19.7093V19.6995V19.6897V19.6799V19.6701V19.6604V19.6506V19.6408V19.631V19.6212V19.6114V19.6016V19.5918V19.582V19.5721V19.5623V19.5525V19.5427V19.5329V19.5231V19.5132V19.5034V19.4936V19.4838V19.4739V19.4641V19.4542V19.4444V19.4346V19.4247V19.4149V19.405V19.3952V19.3853V19.3755V19.3656V19.3558V19.3459V19.3361V19.3262V19.3164V19.3065V19.2966V19.2868V19.2769V19.267V19.2572V19.2473V19.2374V19.2276V19.2177V19.2078V19.198V19.1881V19.1782V19.1683V19.1585V19.1486V19.1387V19.1288V19.1189V19.1091V19.0992V19.0893V19.0794V19.0695V19.0596V19.0498V19.0399V19.03V19.0201V19.0102V19.0003V18.9904V18.9806V18.9707V18.9608V18.9509V18.941V18.9311V18.9212V18.9113V18.9014V18.8916V18.8817V18.8718V18.8619V18.852V18.8421V18.8322V18.8223V18.8125V18.8026V18.7927V18.7828V18.7729V18.763V18.7531V18.7433V18.7334V18.7235V18.7136V18.7037V18.6938V18.684V18.6741V18.6642V18.6543V18.6445V18.6346V18.6247V18.6148V18.605V18.5951V18.5852V18.5753V18.5655V18.5556V18.5457V18.5359V18.526V18.5161C11.2293 16.9515 11.2293 15.2032 11.2293 14.3949C11.2293 14.3236 11.2617 14.2561 11.3195 14.2097L17.1514 9.53223ZM18.1639 16.4447C18.1639 17.8102 18.5917 19.116 19.347 20.0934C20.1061 21.0756 21.2151 21.7437 22.541 21.7437V20.5876C21.6538 20.5876 20.8693 20.1477 20.2882 19.3957C19.7033 18.6388 19.3442 17.5842 19.3442 16.4447H18.1639Z" fill="#FAFAFA"/>
<path d="M53.592 27C51.1056 27 49.0521 26.1346 47.4312 24.4038C45.8104 22.6731 45 20.5385 45 18C45 15.4451 45.8104 13.3104 47.4312 11.5962C49.0521 9.86538 51.1056 9 53.592 9C55.0869 9 56.4638 9.37088 57.7227 10.1126C58.9973 10.8379 59.9887 11.8269 60.6968 13.0797L57.8879 14.7857C57.4788 14.011 56.8965 13.4093 56.1412 12.9808C55.3859 12.5357 54.5361 12.3132 53.592 12.3132C51.9869 12.3132 50.6886 12.8407 49.6972 13.8956C48.7216 14.9505 48.2338 16.3187 48.2338 18C48.2338 19.6648 48.7216 21.0247 49.6972 22.0797C50.6886 23.1346 51.9869 23.6621 53.592 23.6621C54.5361 23.6621 55.3859 23.4478 56.1412 23.0192C56.9123 22.5742 57.4945 21.9725 57.8879 21.2143L60.6968 22.9203C59.9887 24.1731 59.0052 25.1703 57.7463 25.9121C56.4874 26.6374 55.1026 27 53.592 27Z" fill="#2D2942"/>
<path d="M76.4394 24.4038C74.7714 26.1346 72.7414 27 70.3495 27C67.9576 27 65.9276 26.1346 64.2596 24.4038C62.6073 22.6566 61.7812 20.522 61.7812 18C61.7812 15.478 62.6073 13.3516 64.2596 11.6209C65.9276 9.87363 67.9576 9 70.3495 9C72.7414 9 74.7714 9.87363 76.4394 11.6209C78.1074 13.3516 78.9415 15.478 78.9415 18C78.9415 20.522 78.1074 22.6566 76.4394 24.4038ZM66.5492 22.0797C67.5721 23.1346 68.8388 23.6621 70.3495 23.6621C71.8602 23.6621 73.1269 23.1346 74.1498 22.0797C75.1726 21.0082 75.6841 19.6484 75.6841 18C75.6841 16.3516 75.1726 14.9918 74.1498 13.9203C73.1269 12.8489 71.8602 12.3132 70.3495 12.3132C68.8388 12.3132 67.5721 12.8489 66.5492 13.9203C65.5264 14.9918 65.0149 16.3516 65.0149 18C65.0149 19.6484 65.5264 21.0082 66.5492 22.0797Z" fill="#2D2942"/>
<path d="M84.0322 23.3901H91.0427V26.6538H79.8779V23.9341L86.7467 12.6099H80.0431V9.34615H90.9011V12.0412L84.0322 23.3901Z" fill="#2D2942"/>
<path d="M106.498 24.4038C104.83 26.1346 102.8 27 100.408 27C98.0162 27 95.9862 26.1346 94.3181 24.4038C92.6658 22.6566 91.8397 20.522 91.8397 18C91.8397 15.478 92.6658 13.3516 94.3181 11.6209C95.9862 9.87363 98.0162 9 100.408 9C102.8 9 104.83 9.87363 106.498 11.6209C108.166 13.3516 109 15.478 109 18C109 20.522 108.166 22.6566 106.498 24.4038ZM96.6078 22.0797C97.6306 23.1346 98.8974 23.6621 100.408 23.6621C101.919 23.6621 103.185 23.1346 104.208 22.0797C105.231 21.0082 105.743 19.6484 105.743 18C105.743 16.3516 105.231 14.9918 104.208 13.9203C103.185 12.8489 101.919 12.3132 100.408 12.3132C98.8974 12.3132 97.6306 12.8489 96.6078 13.9203C95.5849 14.9918 95.0735 16.3516 95.0735 18C95.0735 19.6484 95.5849 21.0082 96.6078 22.0797Z" fill="#2D2942"/>
<defs>
<linearGradient id="paint0_linear" x1="6.98382" y1="7.29167" x2="29.0593" y2="34.0735" gradientUnits="userSpaceOnUse">
<stop stop-color="#FFAB8F"/>
<stop offset="1" stop-color="#4F5E75"/>
</linearGradient>
</defs>
</svg>
