<svg width="28" height="20" viewBox="0 0 28 20" fill="none" xmlns="http://www.w3.org/2000/svg">
<path d="M14 1C20.0069 1 25.1033 4.76017 27 10C25.1033 15.2399 20.0069 19 14 19C7.99306 19 2.89666 15.2398 1 10C2.89666 4.76017 7.99306 1 14 1ZM14 16C17.5899 16 20.5 13.3137 20.5 10C20.5 6.68629 17.5899 4.00002 14 4.00002C10.4101 4.00002 7.5 6.68629 7.5 10C7.5 13.3137 10.4101 16 14 16Z" fill="#7589A7"/>
<path d="M11.7019 7.87871C10.4327 9.05028 10.4327 10.9498 11.7019 12.1213C12.9711 13.2929 15.0289 13.2929 16.2981 12.1213C17.5673 10.9498 17.5673 9.05028 16.2981 7.87871C15.0289 6.70714 12.9711 6.70714 11.7019 7.87871Z" fill="#7589A7"/>
<path d="M14 1C20.0069 1 25.1033 4.76017 27 10C25.1033 15.2399 20.0069 19 14 19C7.99306 19 2.89666 15.2398 1 10C2.89666 4.76017 7.99306 1 14 1ZM14 16C17.5899 16 20.5 13.3137 20.5 10C20.5 6.68629 17.5899 4.00002 14 4.00002C10.4101 4.00002 7.5 6.68629 7.5 10C7.5 13.3137 10.4101 16 14 16Z" stroke="#7589A7"/>
<path d="M11.7019 7.87871C10.4327 9.05028 10.4327 10.9498 11.7019 12.1213C12.9711 13.2929 15.0289 13.2929 16.2981 12.1213C17.5673 10.9498 17.5673 9.05028 16.2981 7.87871C15.0289 6.70714 12.9711 6.70714 11.7019 7.87871Z" stroke="#7589A7"/>
</svg>
