<svg width="42" height="42" viewBox="0 0 42 42" fill="none" xmlns="http://www.w3.org/2000/svg">
<circle cx="21" cy="21" r="21" fill="#F6F7FB"/>
<path d="M20.5737 12.65C22.7929 12.65 24.638 14.5173 24.638 16.8293C24.638 19.1412 22.7929 21.0085 20.5737 21.0085C18.3545 21.0085 16.5094 19.1412 16.5094 16.8293C16.5094 14.5173 18.3545 12.65 20.5737 12.65Z" stroke="#2D2942" stroke-width="1.3"/>
<path d="M22.639 23.2862L22.639 23.2862L22.6436 23.2846C24.2888 22.7293 26.0754 23.1932 27.1571 24.5241C27.9892 25.5761 28.4929 26.9264 28.4929 28.3761C28.4929 28.932 28.0621 29.3505 27.5572 29.3505H13.5857C13.0808 29.3505 12.65 28.932 12.65 28.3761C12.65 26.9254 13.1543 25.5743 13.9874 24.522C15.0451 23.1965 16.85 22.7279 18.4992 23.2846L18.5039 23.2862C19.1633 23.5033 19.8533 23.6261 20.5714 23.6261C21.2895 23.6261 21.9795 23.5033 22.639 23.2862Z" stroke="#2D2942" stroke-width="1.3"/>
</svg>
