<svg width="26" height="30" viewBox="0 0 26 30" fill="none" xmlns="http://www.w3.org/2000/svg">
<mask id="path-1-outside-1" maskUnits="userSpaceOnUse" x="0" y="0" width="26" height="30" fill="black">
<rect fill="white" width="26" height="30"/>
<path d="M18.6557 19.1231C19.3994 18.4153 19.9893 17.5743 20.3916 16.6484C20.7939 15.7224 21.0006 14.7297 21 13.7273C20.9942 13.2751 20.9454 12.8243 20.8544 12.3805C21.2749 12.2731 21.6471 12.0373 21.9142 11.7091C22.1812 11.3809 22.3283 10.9783 22.3332 10.5627C22.338 10.1472 22.2003 9.74158 21.941 9.40777C21.6817 9.07396 21.3151 8.83032 20.8971 8.71403C20.6627 7.36347 20.0541 6.09734 19.1344 5.04692C18.2147 3.9965 17.0174 3.20002 15.6667 2.74007V1.63636C15.6667 1.55278 15.6495 1.47001 15.616 1.39278C15.5825 1.31555 15.5334 1.24538 15.4715 1.18627C15.4096 1.12717 15.3361 1.0803 15.2552 1.04834C15.1743 1.01638 15.0876 0.99995 15 1H11C10.9124 0.99995 10.8257 1.01638 10.7448 1.04834C10.6639 1.0803 10.5904 1.12717 10.5285 1.18627C10.4666 1.24538 10.4175 1.31555 10.384 1.39278C10.3505 1.47001 10.3333 1.55278 10.3333 1.63636V2.74007C8.98256 3.20002 7.78525 3.9965 6.86556 5.04692C5.94587 6.09734 5.33728 7.36347 5.10289 8.71403C4.68493 8.83032 4.31832 9.07396 4.05903 9.40777C3.79973 9.74158 3.66199 10.1472 3.66683 10.5627C3.67167 10.9783 3.81883 11.3809 4.08585 11.7091C4.35286 12.0373 4.72506 12.2731 5.14562 12.3805C5.05458 12.8243 5.00585 13.2751 5.00002 13.7273C4.99935 14.7297 5.2061 15.7224 5.60841 16.6484C6.01071 17.5743 6.60065 18.4153 7.34435 19.1231C5.51735 19.6025 3.90634 20.6424 2.75979 22.0823C1.61325 23.5222 0.994868 25.2823 1.00003 27.0909V28.3636C0.999979 28.4472 1.01719 28.53 1.05067 28.6072C1.08416 28.6845 1.13326 28.7546 1.19518 28.8137C1.25709 28.8728 1.33061 28.9197 1.41151 28.9517C1.49242 28.9836 1.57913 29 1.6667 29H24.3333C24.4209 29 24.5076 28.9836 24.5885 28.9517C24.6694 28.9197 24.7429 28.8728 24.8048 28.8137C24.8667 28.7546 24.9158 28.6845 24.9493 28.6072C24.9828 28.53 25 28.4472 25 28.3636V27.0909C25.0051 25.2823 24.3868 23.5222 23.2402 22.0823C22.0937 20.6424 20.4827 19.6025 18.6557 19.1231ZM5.70055 9.90909C5.867 9.90912 6.02743 9.84971 6.15031 9.74255C6.27319 9.63539 6.34964 9.48823 6.36462 9.33C6.45853 8.41127 6.7614 7.52318 7.2521 6.72774C7.74279 5.93231 8.40946 5.24871 9.20558 4.72467L10.4036 7.01198C10.4827 7.16296 10.6214 7.27777 10.7891 7.33115C10.9569 7.38453 11.14 7.37211 11.2982 7.29663C11.4563 7.22114 11.5766 7.08877 11.6325 6.92864C11.6885 6.76851 11.6754 6.59373 11.5964 6.44275L10.3708 4.10313C10.6345 3.99077 10.9055 3.89502 11.1823 3.81651C11.3217 3.77849 11.4444 3.69819 11.5318 3.58774C11.6192 3.47728 11.6665 3.34268 11.6667 3.20427V2.27273H14.3333V3.20427C14.3335 3.34266 14.3809 3.47724 14.4683 3.58767C14.5556 3.69811 14.6783 3.7784 14.8177 3.81642C15.0945 3.89493 15.3655 3.99067 15.6292 4.10304L14.4036 6.44266C14.3246 6.59364 14.3115 6.76842 14.3675 6.92855C14.4234 7.08868 14.5437 7.22105 14.7018 7.29653C14.86 7.37202 15.0431 7.38443 15.2109 7.33105C15.3786 7.27767 15.5173 7.16286 15.5964 7.01189L16.7944 4.72457C17.5905 5.24862 18.2572 5.93224 18.7479 6.72769C19.2386 7.52314 19.5415 8.41125 19.6354 9.33C19.6504 9.48823 19.7268 9.63538 19.8497 9.74254C19.9726 9.8497 20.133 9.90911 20.2994 9.90909H20.3333C20.5101 9.90909 20.6797 9.97614 20.8047 10.0955C20.9297 10.2148 21 10.3767 21 10.5455C21 10.7142 20.9297 10.8761 20.8047 10.9954C20.6797 11.1148 20.5101 11.1818 20.3333 11.1818H5.66669C5.48995 11.1816 5.32051 11.1145 5.19554 10.9952C5.07056 10.8759 5.00025 10.7142 5.00002 10.5455C5.00116 10.4594 5.0203 10.3745 5.05634 10.2957C5.09237 10.2168 5.14456 10.1457 5.20983 10.0864C5.27511 10.0271 5.35215 9.98086 5.43643 9.95041C5.5207 9.91996 5.6105 9.90591 5.70055 9.90909V9.90909ZM6.48838 12.4545H19.5117C19.6086 12.8726 19.6605 13.2991 19.6666 13.7273C19.6666 15.415 18.9643 17.0336 17.714 18.227C16.4638 19.4205 14.7681 20.0909 13 20.0909C11.2319 20.0909 9.53621 19.4205 8.28597 18.227C7.03573 17.0336 6.33335 15.415 6.33335 13.7273C6.33948 13.2991 6.39142 12.8726 6.48838 12.4545ZM23.6666 27.7273H2.33336V27.0909C2.32931 25.3922 2.9758 23.7506 4.15115 22.4751C5.32651 21.1996 6.9497 20.3781 8.71528 20.1652C9.99402 20.9477 11.4811 21.3636 13 21.3636C14.5189 21.3636 16.006 20.9477 17.2847 20.1652C19.0503 20.3781 20.6735 21.1996 21.8488 22.4751C23.0242 23.7506 23.6707 25.3922 23.6666 27.0909V27.7273Z"/>
</mask>
<path d="M18.6557 19.1231C19.3994 18.4153 19.9893 17.5743 20.3916 16.6484C20.7939 15.7224 21.0006 14.7297 21 13.7273C20.9942 13.2751 20.9454 12.8243 20.8544 12.3805C21.2749 12.2731 21.6471 12.0373 21.9142 11.7091C22.1812 11.3809 22.3283 10.9783 22.3332 10.5627C22.338 10.1472 22.2003 9.74158 21.941 9.40777C21.6817 9.07396 21.3151 8.83032 20.8971 8.71403C20.6627 7.36347 20.0541 6.09734 19.1344 5.04692C18.2147 3.9965 17.0174 3.20002 15.6667 2.74007V1.63636C15.6667 1.55278 15.6495 1.47001 15.616 1.39278C15.5825 1.31555 15.5334 1.24538 15.4715 1.18627C15.4096 1.12717 15.3361 1.0803 15.2552 1.04834C15.1743 1.01638 15.0876 0.99995 15 1H11C10.9124 0.99995 10.8257 1.01638 10.7448 1.04834C10.6639 1.0803 10.5904 1.12717 10.5285 1.18627C10.4666 1.24538 10.4175 1.31555 10.384 1.39278C10.3505 1.47001 10.3333 1.55278 10.3333 1.63636V2.74007C8.98256 3.20002 7.78525 3.9965 6.86556 5.04692C5.94587 6.09734 5.33728 7.36347 5.10289 8.71403C4.68493 8.83032 4.31832 9.07396 4.05903 9.40777C3.79973 9.74158 3.66199 10.1472 3.66683 10.5627C3.67167 10.9783 3.81883 11.3809 4.08585 11.7091C4.35286 12.0373 4.72506 12.2731 5.14562 12.3805C5.05458 12.8243 5.00585 13.2751 5.00002 13.7273C4.99935 14.7297 5.2061 15.7224 5.60841 16.6484C6.01071 17.5743 6.60065 18.4153 7.34435 19.1231C5.51735 19.6025 3.90634 20.6424 2.75979 22.0823C1.61325 23.5222 0.994868 25.2823 1.00003 27.0909V28.3636C0.999979 28.4472 1.01719 28.53 1.05067 28.6072C1.08416 28.6845 1.13326 28.7546 1.19518 28.8137C1.25709 28.8728 1.33061 28.9197 1.41151 28.9517C1.49242 28.9836 1.57913 29 1.6667 29H24.3333C24.4209 29 24.5076 28.9836 24.5885 28.9517C24.6694 28.9197 24.7429 28.8728 24.8048 28.8137C24.8667 28.7546 24.9158 28.6845 24.9493 28.6072C24.9828 28.53 25 28.4472 25 28.3636V27.0909C25.0051 25.2823 24.3868 23.5222 23.2402 22.0823C22.0937 20.6424 20.4827 19.6025 18.6557 19.1231ZM5.70055 9.90909C5.867 9.90912 6.02743 9.84971 6.15031 9.74255C6.27319 9.63539 6.34964 9.48823 6.36462 9.33C6.45853 8.41127 6.7614 7.52318 7.2521 6.72774C7.74279 5.93231 8.40946 5.24871 9.20558 4.72467L10.4036 7.01198C10.4827 7.16296 10.6214 7.27777 10.7891 7.33115C10.9569 7.38453 11.14 7.37211 11.2982 7.29663C11.4563 7.22114 11.5766 7.08877 11.6325 6.92864C11.6885 6.76851 11.6754 6.59373 11.5964 6.44275L10.3708 4.10313C10.6345 3.99077 10.9055 3.89502 11.1823 3.81651C11.3217 3.77849 11.4444 3.69819 11.5318 3.58774C11.6192 3.47728 11.6665 3.34268 11.6667 3.20427V2.27273H14.3333V3.20427C14.3335 3.34266 14.3809 3.47724 14.4683 3.58767C14.5556 3.69811 14.6783 3.7784 14.8177 3.81642C15.0945 3.89493 15.3655 3.99067 15.6292 4.10304L14.4036 6.44266C14.3246 6.59364 14.3115 6.76842 14.3675 6.92855C14.4234 7.08868 14.5437 7.22105 14.7018 7.29653C14.86 7.37202 15.0431 7.38443 15.2109 7.33105C15.3786 7.27767 15.5173 7.16286 15.5964 7.01189L16.7944 4.72457C17.5905 5.24862 18.2572 5.93224 18.7479 6.72769C19.2386 7.52314 19.5415 8.41125 19.6354 9.33C19.6504 9.48823 19.7268 9.63538 19.8497 9.74254C19.9726 9.8497 20.133 9.90911 20.2994 9.90909H20.3333C20.5101 9.90909 20.6797 9.97614 20.8047 10.0955C20.9297 10.2148 21 10.3767 21 10.5455C21 10.7142 20.9297 10.8761 20.8047 10.9954C20.6797 11.1148 20.5101 11.1818 20.3333 11.1818H5.66669C5.48995 11.1816 5.32051 11.1145 5.19554 10.9952C5.07056 10.8759 5.00025 10.7142 5.00002 10.5455C5.00116 10.4594 5.0203 10.3745 5.05634 10.2957C5.09237 10.2168 5.14456 10.1457 5.20983 10.0864C5.27511 10.0271 5.35215 9.98086 5.43643 9.95041C5.5207 9.91996 5.6105 9.90591 5.70055 9.90909V9.90909ZM6.48838 12.4545H19.5117C19.6086 12.8726 19.6605 13.2991 19.6666 13.7273C19.6666 15.415 18.9643 17.0336 17.714 18.227C16.4638 19.4205 14.7681 20.0909 13 20.0909C11.2319 20.0909 9.53621 19.4205 8.28597 18.227C7.03573 17.0336 6.33335 15.415 6.33335 13.7273C6.33948 13.2991 6.39142 12.8726 6.48838 12.4545ZM23.6666 27.7273H2.33336V27.0909C2.32931 25.3922 2.9758 23.7506 4.15115 22.4751C5.32651 21.1996 6.9497 20.3781 8.71528 20.1652C9.99402 20.9477 11.4811 21.3636 13 21.3636C14.5189 21.3636 16.006 20.9477 17.2847 20.1652C19.0503 20.3781 20.6735 21.1996 21.8488 22.4751C23.0242 23.7506 23.6707 25.3922 23.6666 27.0909V27.7273Z" fill="#4F5E75"/>
<path d="M18.6557 19.1231C19.3994 18.4153 19.9893 17.5743 20.3916 16.6484C20.7939 15.7224 21.0006 14.7297 21 13.7273C20.9942 13.2751 20.9454 12.8243 20.8544 12.3805C21.2749 12.2731 21.6471 12.0373 21.9142 11.7091C22.1812 11.3809 22.3283 10.9783 22.3332 10.5627C22.338 10.1472 22.2003 9.74158 21.941 9.40777C21.6817 9.07396 21.3151 8.83032 20.8971 8.71403C20.6627 7.36347 20.0541 6.09734 19.1344 5.04692C18.2147 3.9965 17.0174 3.20002 15.6667 2.74007V1.63636C15.6667 1.55278 15.6495 1.47001 15.616 1.39278C15.5825 1.31555 15.5334 1.24538 15.4715 1.18627C15.4096 1.12717 15.3361 1.0803 15.2552 1.04834C15.1743 1.01638 15.0876 0.99995 15 1H11C10.9124 0.99995 10.8257 1.01638 10.7448 1.04834C10.6639 1.0803 10.5904 1.12717 10.5285 1.18627C10.4666 1.24538 10.4175 1.31555 10.384 1.39278C10.3505 1.47001 10.3333 1.55278 10.3333 1.63636V2.74007C8.98256 3.20002 7.78525 3.9965 6.86556 5.04692C5.94587 6.09734 5.33728 7.36347 5.10289 8.71403C4.68493 8.83032 4.31832 9.07396 4.05903 9.40777C3.79973 9.74158 3.66199 10.1472 3.66683 10.5627C3.67167 10.9783 3.81883 11.3809 4.08585 11.7091C4.35286 12.0373 4.72506 12.2731 5.14562 12.3805C5.05458 12.8243 5.00585 13.2751 5.00002 13.7273C4.99935 14.7297 5.2061 15.7224 5.60841 16.6484C6.01071 17.5743 6.60065 18.4153 7.34435 19.1231C5.51735 19.6025 3.90634 20.6424 2.75979 22.0823C1.61325 23.5222 0.994868 25.2823 1.00003 27.0909V28.3636C0.999979 28.4472 1.01719 28.53 1.05067 28.6072C1.08416 28.6845 1.13326 28.7546 1.19518 28.8137C1.25709 28.8728 1.33061 28.9197 1.41151 28.9517C1.49242 28.9836 1.57913 29 1.6667 29H24.3333C24.4209 29 24.5076 28.9836 24.5885 28.9517C24.6694 28.9197 24.7429 28.8728 24.8048 28.8137C24.8667 28.7546 24.9158 28.6845 24.9493 28.6072C24.9828 28.53 25 28.4472 25 28.3636V27.0909C25.0051 25.2823 24.3868 23.5222 23.2402 22.0823C22.0937 20.6424 20.4827 19.6025 18.6557 19.1231ZM5.70055 9.90909C5.867 9.90912 6.02743 9.84971 6.15031 9.74255C6.27319 9.63539 6.34964 9.48823 6.36462 9.33C6.45853 8.41127 6.7614 7.52318 7.2521 6.72774C7.74279 5.93231 8.40946 5.24871 9.20558 4.72467L10.4036 7.01198C10.4827 7.16296 10.6214 7.27777 10.7891 7.33115C10.9569 7.38453 11.14 7.37211 11.2982 7.29663C11.4563 7.22114 11.5766 7.08877 11.6325 6.92864C11.6885 6.76851 11.6754 6.59373 11.5964 6.44275L10.3708 4.10313C10.6345 3.99077 10.9055 3.89502 11.1823 3.81651C11.3217 3.77849 11.4444 3.69819 11.5318 3.58774C11.6192 3.47728 11.6665 3.34268 11.6667 3.20427V2.27273H14.3333V3.20427C14.3335 3.34266 14.3809 3.47724 14.4683 3.58767C14.5556 3.69811 14.6783 3.7784 14.8177 3.81642C15.0945 3.89493 15.3655 3.99067 15.6292 4.10304L14.4036 6.44266C14.3246 6.59364 14.3115 6.76842 14.3675 6.92855C14.4234 7.08868 14.5437 7.22105 14.7018 7.29653C14.86 7.37202 15.0431 7.38443 15.2109 7.33105C15.3786 7.27767 15.5173 7.16286 15.5964 7.01189L16.7944 4.72457C17.5905 5.24862 18.2572 5.93224 18.7479 6.72769C19.2386 7.52314 19.5415 8.41125 19.6354 9.33C19.6504 9.48823 19.7268 9.63538 19.8497 9.74254C19.9726 9.8497 20.133 9.90911 20.2994 9.90909H20.3333C20.5101 9.90909 20.6797 9.97614 20.8047 10.0955C20.9297 10.2148 21 10.3767 21 10.5455C21 10.7142 20.9297 10.8761 20.8047 10.9954C20.6797 11.1148 20.5101 11.1818 20.3333 11.1818H5.66669C5.48995 11.1816 5.32051 11.1145 5.19554 10.9952C5.07056 10.8759 5.00025 10.7142 5.00002 10.5455C5.00116 10.4594 5.0203 10.3745 5.05634 10.2957C5.09237 10.2168 5.14456 10.1457 5.20983 10.0864C5.27511 10.0271 5.35215 9.98086 5.43643 9.95041C5.5207 9.91996 5.6105 9.90591 5.70055 9.90909V9.90909ZM6.48838 12.4545H19.5117C19.6086 12.8726 19.6605 13.2991 19.6666 13.7273C19.6666 15.415 18.9643 17.0336 17.714 18.227C16.4638 19.4205 14.7681 20.0909 13 20.0909C11.2319 20.0909 9.53621 19.4205 8.28597 18.227C7.03573 17.0336 6.33335 15.415 6.33335 13.7273C6.33948 13.2991 6.39142 12.8726 6.48838 12.4545ZM23.6666 27.7273H2.33336V27.0909C2.32931 25.3922 2.9758 23.7506 4.15115 22.4751C5.32651 21.1996 6.9497 20.3781 8.71528 20.1652C9.99402 20.9477 11.4811 21.3636 13 21.3636C14.5189 21.3636 16.006 20.9477 17.2847 20.1652C19.0503 20.3781 20.6735 21.1996 21.8488 22.4751C23.0242 23.7506 23.6707 25.3922 23.6666 27.0909V27.7273Z" stroke="#4F5E75" stroke-width="0.4" mask="url(#path-1-outside-1)"/>
</svg>
