<svg width="158" height="158" viewBox="0 0 158 158" fill="none" xmlns="http://www.w3.org/2000/svg">
<path d="M155.318 52.6621L93.5327 103.997L90.7158 106.34C83.9006 111.969 74.0488 111.969 67.2335 106.34L64.4167 103.997L2.63086 52.6621L26.3238 35.8665L54.65 15.8065L63.39 9.5937C63.4163 9.5937 63.4427 9.56737 63.469 9.56737L67.2335 6.88218C74.0378 1.22222 83.9116 1.22222 90.7158 6.88218L103.299 15.8065L131.626 35.8665L155.318 52.6621Z" fill="#CAD9FC"/>
<path d="M150.054 57.9273L88.2678 109.262L88.1362 109.367C81.9475 111.742 74.9582 110.584 69.8663 106.34L67.0495 103.997L5.26367 52.6622L28.9566 35.8666L57.2828 15.8066L66.0228 9.59376C66.0492 9.59376 66.0755 9.56744 66.1018 9.56744C72.5109 6.63411 80.0344 7.63725 85.451 12.1473L98.0346 21.0717L126.361 41.1317L150.054 57.9273Z" fill="#E8EDFC"/>
<path d="M131.626 18.439V126.373H26.3242V18.439C26.4131 16.9094 27.7158 15.7359 29.2463 15.8065H128.704C130.234 15.7359 131.537 16.9094 131.626 18.439Z" fill="#CAD9FC"/>
<path d="M123.728 18.439V126.373H26.3242V18.439C26.4131 16.9094 27.7158 15.7359 29.2463 15.8065H120.806C122.337 15.7359 123.639 16.9094 123.728 18.439Z" fill="url(#paint0_linear)"/>
<path d="M155.319 52.6622L155.319 150.066C155.321 151.533 154.699 152.931 153.607 153.91C152.653 154.829 151.378 155.339 150.053 155.332H7.89596C6.57133 155.339 5.29618 154.829 4.34202 153.91C3.25047 152.931 2.62807 151.533 2.63087 150.066L2.63086 52.6622L64.4167 103.997L67.2335 106.34C74.0506 111.964 83.8988 111.964 90.7158 106.34L93.5327 103.997L147.421 59.2173L155.319 52.6622Z" fill="#CAD9FC"/>
<path d="M147.421 59.217V150.066C147.424 151.533 146.801 152.931 145.71 153.91C144.756 154.829 143.48 155.339 142.156 155.331H7.89596C6.57133 155.339 5.29618 154.829 4.34202 153.91C3.25047 152.931 2.62807 151.533 2.63087 150.066L2.63086 50.0294L56.5191 97.7048L59.3359 100.048C63.8376 103.786 69.6555 108.712 75.0259 107.501C80.3963 108.712 86.2142 110.078 90.7158 106.34L93.5327 103.997L147.421 59.217Z" fill="#E8EDFC"/>
<path d="M153.607 153.91C152.653 154.829 151.378 155.339 150.053 155.331H7.89573C6.57111 155.339 5.29595 154.829 4.3418 153.91L60.5203 107.235L64.4165 103.997L67.2333 106.34C73.6215 111.612 82.7408 111.978 89.531 107.235C89.9258 106.945 90.3207 106.656 90.7156 106.34L93.5324 103.997L153.607 153.91Z" fill="#CAD9FC"/>
<path d="M145.709 153.91C144.755 154.829 143.48 155.339 142.156 155.331H7.89573C6.57111 155.339 5.29595 154.829 4.3418 153.91L60.5203 107.235C64.7297 110.205 69.9985 111.257 75.0256 110.131C80.0527 111.257 85.3216 110.205 89.531 107.235L145.709 153.91Z" fill="#E8EDFC"/>
<path d="M71.2861 9.59375C71.3124 9.59375 71.3388 9.56742 71.3651 9.56742L75.1296 6.88222C77.3888 5.02324 80.0611 3.73352 82.922 3.12137C77.3918 1.87829 71.5977 3.26712 67.232 6.88222L63.4675 9.56742C63.4411 9.56742 63.4148 9.59375 63.3885 9.59375L54.6484 15.8066H62.5461L71.2861 9.59375Z" fill="white"/>
<path d="M82.2373 89.4914C76.3362 89.464 70.4737 88.5395 64.8506 86.7496C55.8662 83.7438 49.1929 76.1377 47.3816 66.8386C45.3995 57.2917 49.0116 47.1972 57.2897 39.1442C58.1779 38.2792 59.1009 37.4505 60.0586 36.6583C68.5344 29.5624 79.9614 27.0964 90.6093 30.0654C100.918 33.3555 108.041 42.7762 108.397 53.5911C108.783 59.8164 106.754 65.9508 102.732 70.7182C99.63 74.6256 94.604 76.4712 89.7105 75.4999C87.7092 75.0847 85.9632 73.8726 84.8743 72.1429C83.8973 70.4627 83.6467 68.4571 84.1804 66.5882C86.4825 57.8861 88.8231 44.6615 88.8463 44.5275C89.0098 43.6011 89.6551 42.8323 90.5391 42.5107C91.4232 42.1891 92.4117 42.3635 93.1322 42.9684C93.8527 43.5732 94.1959 44.5164 94.0324 45.4428C93.9347 45.993 91.6299 59.0194 89.2712 67.934C89.1028 68.428 89.1451 68.9695 89.3881 69.4314C89.7521 69.9351 90.3013 70.2736 90.9149 70.3723C93.9106 70.8722 96.9365 69.6704 98.7728 67.2514C101.896 63.5149 103.461 58.7194 103.143 53.8599C102.885 45.2514 97.2403 37.7357 89.0445 35.0898C80.0983 32.6292 70.5141 34.7313 63.419 40.7103C62.5732 41.4124 61.7505 42.1474 60.9613 42.9161C56.8687 46.8971 50.3334 55.1575 52.5356 65.7666C54.0152 73.1785 59.3088 79.2528 66.4488 81.7317C78.7955 85.6702 96.5367 86.1444 105.884 74.5217C106.803 73.4156 108.439 73.2509 109.559 74.1516C110.68 75.0523 110.87 76.6854 109.987 77.82C103.075 86.416 92.5566 89.4914 82.2373 89.4914Z" fill="#514A7A"/>
<path d="M73.2247 75.8423C70.442 75.8901 67.7279 74.9776 65.5392 73.2584C60.4863 69.2146 60.3473 62.1896 61.7639 57.4055C62.241 55.8122 62.8815 54.2726 63.6754 52.8112C65.6507 48.8258 68.8091 45.5481 72.7185 43.4264C77.587 40.9002 83.5352 41.8582 87.3644 45.7852C89.2641 47.8671 90.695 50.3323 91.5606 53.0144C92.0191 54.3755 91.302 55.8528 89.949 56.3347C88.5961 56.8165 87.1066 56.125 86.6014 54.7806C85.9773 52.7991 84.9399 50.9725 83.5577 49.4215C81.3252 47.1385 77.8466 46.619 75.0446 48.1502C72.1127 49.8037 69.7566 52.3141 68.2921 55.3447C67.6767 56.4802 67.1796 57.676 66.8087 58.9131C65.7857 62.3736 66.0105 66.8898 68.8333 69.1503C71.9195 71.6286 77.1259 70.5809 80.0551 68.0539C82.2381 66.0886 84.1138 63.8068 85.6195 61.2848C86.1071 60.4678 86.9976 59.9774 87.9488 60.0023C88.8999 60.0271 89.7637 60.5632 90.208 61.4046C90.6523 62.2459 90.608 63.2616 90.0922 64.0611C88.3087 67.0328 86.0883 69.7194 83.5056 72.0306C80.627 74.4594 76.9909 75.8075 73.2247 75.8423V75.8423Z" fill="#514A7A"/>
<path d="M5.26509 52.662V86.8851V150.066H0V86.8851V52.662H5.26509Z" fill="white"/>
<path d="M2.63255 65.8247C4.08472 65.8205 5.2609 64.6443 5.26509 63.1922V52.662H0V63.1922C0.00419309 64.6443 1.18037 65.8205 2.63255 65.8247Z" fill="#514A7A"/>
<path d="M0 150.066H5.26509V84.2525C5.26509 82.7986 4.08646 81.62 2.63255 81.62C1.17863 81.62 0 82.7986 0 84.2525V150.066Z" fill="#514A7A"/>
<path d="M5.26643 73.7225C5.25601 73.0256 4.98342 72.3583 4.50299 71.8534L4.10811 71.5375C3.96133 71.4379 3.80199 71.3582 3.63425 71.3006C3.48509 71.2245 3.32536 71.1713 3.16039 71.1426C2.98631 71.113 2.81039 71.0954 2.63388 71.09C1.93687 71.0997 1.26926 71.3724 0.764776 71.8534C-0.228884 72.9014 -0.228884 74.5436 0.764776 75.5916C1.01661 75.8294 1.31145 76.017 1.63352 76.1445C1.95001 76.2793 2.28987 76.3509 2.63388 76.3551C3.33069 76.3444 3.99796 76.0718 4.50299 75.5916C4.9832 75.0866 5.25575 74.4193 5.26643 73.7225V73.7225Z" fill="#514A7A"/>
<path d="M150.055 157.964H7.89764C3.53788 157.959 0.00478784 154.426 0 150.066C0 148.612 1.17863 147.434 2.63255 147.434C4.08646 147.434 5.26509 148.612 5.26509 150.066C5.26698 151.519 6.4445 152.697 7.89764 152.699H150.055C151.508 152.697 152.686 151.519 152.688 150.066V58.2727L92.4079 108.37C84.6139 114.811 73.3447 114.813 65.5488 108.374L0.949822 54.6864C-0.154702 53.7534 -0.300144 52.1043 0.624042 50.9924C1.54823 49.8806 3.19615 49.7221 4.31527 50.6375L68.9103 104.322C74.755 109.149 83.2034 109.147 89.0464 104.318L153.635 50.6375C154.42 49.9836 155.513 49.843 156.438 50.2768C157.363 50.7105 157.953 51.6403 157.953 52.6619V150.066C157.948 154.426 154.415 157.959 150.055 157.964V157.964Z" fill="#514A7A"/>
<path d="M2.63512 55.2946C1.48846 55.2956 0.473026 54.5543 0.124637 53.4619C-0.223751 52.3694 0.175056 51.1771 1.11062 50.5141L24.8035 33.7185C25.9897 32.8963 27.6167 33.1826 28.4511 34.3602C29.2855 35.5378 29.0162 37.1677 27.8473 38.0143L4.15436 54.8099C3.71072 55.1256 3.17963 55.295 2.63512 55.2946V55.2946Z" fill="#514A7A"/>
<path d="M155.318 55.2946C154.774 55.295 154.243 55.1256 153.799 54.8099L130.106 38.0143C128.937 37.1677 128.668 35.5378 129.502 34.3602C130.337 33.1826 131.964 32.8963 133.15 33.7185L156.843 50.5141C157.778 51.1771 158.177 52.3694 157.829 53.4619C157.48 54.5543 156.465 55.2956 155.318 55.2946V55.2946Z" fill="#514A7A"/>
<path d="M103.297 18.439C102.752 18.4392 102.221 18.2698 101.776 17.9543L89.1929 9.02997C83.3516 4.09391 74.8159 4.04249 68.9155 8.90782L56.174 17.9546C55.4066 18.4987 54.4072 18.5922 53.5522 18.1997C52.6973 17.8073 52.1166 16.9885 52.029 16.0518C51.9415 15.1152 52.3602 14.203 53.1276 13.6588L65.7112 4.73445C73.4867 -1.62324 84.679 -1.57267 92.3967 4.85502L104.822 13.6577C105.759 14.3205 106.158 15.5134 105.809 16.6064C105.461 17.6993 104.445 18.4407 103.297 18.439V18.439Z" fill="#514A7A"/>
<path d="M4.34396 156.542C3.23452 156.543 2.24355 155.849 1.86613 154.805C1.48871 153.762 1.80586 152.594 2.65913 151.885L62.7338 101.972C63.4557 101.358 64.4518 101.18 65.3419 101.505C66.232 101.83 66.8788 102.608 67.0355 103.542C67.1921 104.477 66.8345 105.423 66.099 106.021L6.02432 155.934C5.55265 156.327 4.95802 156.542 4.34396 156.542V156.542Z" fill="#514A7A"/>
<path d="M153.605 156.542C152.992 156.543 152.397 156.327 151.926 155.934L91.8517 106.021C91.1162 105.424 90.7585 104.477 90.9152 103.543C91.0719 102.608 91.7187 101.83 92.6088 101.505C93.4989 101.18 94.495 101.358 95.2169 101.972L155.29 151.885C156.143 152.594 156.46 153.762 156.083 154.806C155.706 155.849 154.715 156.544 153.605 156.543V156.542Z" fill="#514A7A"/>
<path d="M131.628 74.986C130.174 74.986 128.995 73.8074 128.995 72.3535V18.4595C128.988 18.5148 128.882 18.4403 128.706 18.4389H29.248C29.1317 18.4318 29.0175 18.4727 28.9321 18.5521L28.9585 72.3535C28.9585 73.8074 27.7798 74.986 26.3259 74.986C24.872 74.986 23.6934 73.8074 23.6934 72.3535V18.4389C23.7783 15.4534 26.2622 13.099 29.248 13.1739H128.706C131.691 13.0993 134.175 15.4535 134.26 18.4389V72.3535C134.26 73.8074 133.082 74.986 131.628 74.986Z" fill="#514A7A"/>
<defs>
<linearGradient id="paint0_linear" x1="45.76" y1="38.8389" x2="116.649" y2="114.601" gradientUnits="userSpaceOnUse">
<stop stop-color="#FFAB8F"/>
<stop offset="1" stop-color="#4F5E75"/>
</linearGradient>
</defs>
</svg>
