<svg width="52" height="52" viewBox="0 0 52 52" fill="none" xmlns="http://www.w3.org/2000/svg">
<g filter="url(#filter0_d)">
<rect x="10" y="8" width="32" height="32" rx="5" fill="white"/>
</g>
<path d="M33.1804 24.2332C33.1091 24.085 33.1091 23.915 33.1804 23.7669L33.8411 22.3935C34.209 21.6288 33.9175 20.7174 33.1775 20.3185L31.8484 19.602C31.705 19.5248 31.6067 19.3872 31.5787 19.2248L31.3187 17.7192C31.174 16.8808 30.4107 16.3175 29.5814 16.4367L28.0916 16.6508C27.9308 16.6739 27.7718 16.6213 27.6551 16.5067L26.5738 15.4439C25.9716 14.8521 25.0284 14.852 24.4263 15.4439L23.3449 16.5068C23.2282 16.6215 23.0692 16.6739 22.9084 16.6509L21.4186 16.4368C20.589 16.3175 19.826 16.8809 19.6813 17.7193L19.4213 19.2249C19.3933 19.3873 19.295 19.5248 19.1516 19.6021L17.8225 20.3186C17.0825 20.7175 16.791 21.6289 17.1589 22.3936L17.8196 23.7669C17.8909 23.9151 17.8909 24.0851 17.8196 24.2332L17.1589 25.6065C16.791 26.3712 17.0825 27.2826 17.8225 27.6816L19.1516 28.398C19.295 28.4753 19.3933 28.6128 19.4213 28.7752L19.6813 30.2809C19.8131 31.0441 20.4572 31.5793 21.1974 31.5792C21.2703 31.5792 21.3443 31.574 21.4187 31.5633L22.9084 31.3492C23.0691 31.3261 23.2282 31.3787 23.3449 31.4933L24.4263 32.5562C24.7274 32.8521 25.1136 33 25.5 33C25.8863 33 26.2728 32.852 26.5737 32.5562L27.6551 31.4933C27.7718 31.3787 27.9309 31.3263 28.0916 31.3492L29.5814 31.5633C30.4111 31.6826 31.174 31.1192 31.3187 30.2809L31.5787 28.7753C31.6067 28.6128 31.7051 28.4753 31.8484 28.398L33.1775 27.6816C33.9175 27.2827 34.209 26.3712 33.8411 25.6065L33.1804 24.2332ZM32.6986 26.7644L31.3695 27.4809C30.9457 27.7094 30.6551 28.1157 30.5722 28.5958L30.3123 30.1015C30.2633 30.3851 30.0052 30.5756 29.7245 30.5354L28.2347 30.3213C27.7596 30.2529 27.2895 30.4082 26.9447 30.7471L25.8633 31.8099C25.6596 32.0101 25.3404 32.0101 25.1367 31.8099L24.0553 30.7471C23.7639 30.4607 23.3829 30.3054 22.9852 30.3054C22.9123 30.3054 22.8389 30.3106 22.7653 30.3212L21.2755 30.5353C20.995 30.5756 20.7367 30.3851 20.6877 30.1014L20.4277 28.5957C20.3448 28.1157 20.0542 27.7093 19.6305 27.4809L18.3014 26.7644C18.051 26.6294 17.9523 26.3211 18.0768 26.0624L18.7376 24.689C18.9483 24.2511 18.9483 23.7489 18.7376 23.311L18.0768 21.9376C17.9523 21.6789 18.051 21.3706 18.3014 21.2356L19.6305 20.5191C20.0542 20.2906 20.3448 19.8843 20.4277 19.4042L20.6876 17.8986C20.7366 17.6149 20.9947 17.4244 21.2755 17.4647L22.7652 17.6788C23.2401 17.7471 23.7104 17.5918 24.0553 17.2529L25.1367 16.1901C25.3403 15.9899 25.6595 15.9899 25.8632 16.1901L26.9446 17.2529C27.2894 17.5918 27.7596 17.7471 28.2346 17.6788L29.7244 17.4647C30.0049 17.4243 30.2633 17.6149 30.3122 17.8986L30.5722 19.4042C30.6551 19.8843 30.9457 20.2907 31.3694 20.5191L32.6985 21.2356C32.9489 21.3706 33.0476 21.6789 32.9231 21.9376L32.2623 23.3109C32.0516 23.7488 32.0516 24.2511 32.2623 24.689L32.9231 26.0623C33.0476 26.3211 32.949 26.6295 32.6986 26.7644Z" fill="#7589A7"/>
<path d="M29.2331 20.2072C29.0336 20.0045 28.7101 20.0045 28.5106 20.2072L21.7668 27.0587C21.5673 27.2614 21.5673 27.5901 21.7668 27.7928C21.8666 27.8942 21.9973 27.9449 22.1281 27.9449C22.2588 27.9449 22.3896 27.8942 22.4893 27.7928L29.2331 20.9413C29.4327 20.7386 29.4327 20.41 29.2331 20.2072Z" fill="#7589A7"/>
<path d="M23.4563 19.3283C22.4233 19.3283 21.5829 20.1821 21.5829 21.2316C21.5829 22.2811 22.4233 23.1349 23.4563 23.1349C24.4893 23.1349 25.3297 22.2811 25.3297 21.2316C25.3297 20.1821 24.4893 19.3283 23.4563 19.3283ZM23.4563 22.0967C22.9868 22.0967 22.6048 21.7086 22.6048 21.2316C22.6048 20.7545 22.9868 20.3665 23.4563 20.3665C23.9258 20.3665 24.3079 20.7545 24.3079 21.2316C24.3078 21.7086 23.9258 22.0967 23.4563 22.0967Z" fill="#7589A7"/>
<path d="M27.5436 24.8651C26.5107 24.8651 25.6702 25.719 25.6702 26.7684C25.6702 27.8179 26.5107 28.6718 27.5436 28.6718C28.5766 28.6718 29.417 27.8179 29.417 26.7684C29.417 25.719 28.5766 24.8651 27.5436 24.8651ZM27.5436 27.6336C27.0741 27.6336 26.6921 27.2455 26.6921 26.7684C26.6921 26.2914 27.0741 25.9033 27.5436 25.9033C28.0132 25.9033 28.3951 26.2914 28.3951 26.7684C28.3951 27.2455 28.0132 27.6336 27.5436 27.6336Z" fill="#7589A7"/>
<path d="M33.1804 24.2332C33.1091 24.085 33.1091 23.915 33.1804 23.7669L33.8411 22.3935C34.209 21.6288 33.9175 20.7174 33.1775 20.3185L31.8484 19.602C31.705 19.5248 31.6067 19.3872 31.5787 19.2248L31.3187 17.7192C31.174 16.8808 30.4107 16.3175 29.5814 16.4367L28.0916 16.6508C27.9308 16.6739 27.7718 16.6213 27.6551 16.5067L26.5738 15.4439C25.9716 14.8521 25.0284 14.852 24.4263 15.4439L23.3449 16.5068C23.2282 16.6215 23.0692 16.6739 22.9084 16.6509L21.4186 16.4368C20.589 16.3175 19.826 16.8809 19.6813 17.7193L19.4213 19.2249C19.3933 19.3873 19.295 19.5248 19.1516 19.6021L17.8225 20.3186C17.0825 20.7175 16.791 21.6289 17.1589 22.3936L17.8196 23.7669C17.8909 23.9151 17.8909 24.0851 17.8196 24.2332L17.1589 25.6065C16.791 26.3712 17.0825 27.2826 17.8225 27.6816L19.1516 28.398C19.295 28.4753 19.3933 28.6128 19.4213 28.7752L19.6813 30.2809C19.8131 31.0441 20.4572 31.5793 21.1974 31.5792C21.2703 31.5792 21.3443 31.574 21.4187 31.5633L22.9084 31.3492C23.0691 31.3261 23.2282 31.3787 23.3449 31.4933L24.4263 32.5562C24.7274 32.8521 25.1136 33 25.5 33C25.8863 33 26.2728 32.852 26.5737 32.5562L27.6551 31.4933C27.7718 31.3787 27.9309 31.3263 28.0916 31.3492L29.5814 31.5633C30.4111 31.6826 31.174 31.1192 31.3187 30.2809L31.5787 28.7753C31.6067 28.6128 31.7051 28.4753 31.8484 28.398L33.1775 27.6816C33.9175 27.2827 34.209 26.3712 33.8411 25.6065L33.1804 24.2332ZM32.6986 26.7644L31.3695 27.4809C30.9457 27.7094 30.6551 28.1157 30.5722 28.5958L30.3123 30.1015C30.2633 30.3851 30.0052 30.5756 29.7245 30.5354L28.2347 30.3213C27.7596 30.2529 27.2895 30.4082 26.9447 30.7471L25.8633 31.8099C25.6596 32.0101 25.3404 32.0101 25.1367 31.8099L24.0553 30.7471C23.7639 30.4607 23.3829 30.3054 22.9852 30.3054C22.9123 30.3054 22.8389 30.3106 22.7653 30.3212L21.2755 30.5353C20.995 30.5756 20.7367 30.3851 20.6877 30.1014L20.4277 28.5957C20.3448 28.1157 20.0542 27.7093 19.6305 27.4809L18.3014 26.7644C18.051 26.6294 17.9523 26.3211 18.0768 26.0624L18.7376 24.689C18.9483 24.2511 18.9483 23.7489 18.7376 23.311L18.0768 21.9376C17.9523 21.6789 18.051 21.3706 18.3014 21.2356L19.6305 20.5191C20.0542 20.2906 20.3448 19.8843 20.4277 19.4042L20.6876 17.8986C20.7366 17.6149 20.9947 17.4244 21.2755 17.4647L22.7652 17.6788C23.2401 17.7471 23.7104 17.5918 24.0553 17.2529L25.1367 16.1901C25.3403 15.9899 25.6595 15.9899 25.8632 16.1901L26.9446 17.2529C27.2894 17.5918 27.7596 17.7471 28.2346 17.6788L29.7244 17.4647C30.0049 17.4243 30.2633 17.6149 30.3122 17.8986L30.5722 19.4042C30.6551 19.8843 30.9457 20.2907 31.3694 20.5191L32.6985 21.2356C32.9489 21.3706 33.0476 21.6789 32.9231 21.9376L32.2623 23.3109C32.0516 23.7488 32.0516 24.2511 32.2623 24.689L32.9231 26.0623C33.0476 26.3211 32.949 26.6295 32.6986 26.7644Z" stroke="#7589A7" stroke-width="0.3"/>
<path d="M29.2331 20.2072C29.0336 20.0045 28.7101 20.0045 28.5106 20.2072L21.7668 27.0587C21.5673 27.2614 21.5673 27.5901 21.7668 27.7928C21.8666 27.8942 21.9973 27.9449 22.1281 27.9449C22.2588 27.9449 22.3896 27.8942 22.4893 27.7928L29.2331 20.9413C29.4327 20.7386 29.4327 20.41 29.2331 20.2072Z" stroke="#7589A7" stroke-width="0.3"/>
<path d="M23.4563 19.3283C22.4233 19.3283 21.5829 20.1821 21.5829 21.2316C21.5829 22.2811 22.4233 23.1349 23.4563 23.1349C24.4893 23.1349 25.3297 22.2811 25.3297 21.2316C25.3297 20.1821 24.4893 19.3283 23.4563 19.3283ZM23.4563 22.0967C22.9868 22.0967 22.6048 21.7086 22.6048 21.2316C22.6048 20.7545 22.9868 20.3665 23.4563 20.3665C23.9258 20.3665 24.3079 20.7545 24.3079 21.2316C24.3078 21.7086 23.9258 22.0967 23.4563 22.0967Z" stroke="#7589A7" stroke-width="0.3"/>
<path d="M27.5436 24.8651C26.5107 24.8651 25.6702 25.719 25.6702 26.7684C25.6702 27.8179 26.5107 28.6718 27.5436 28.6718C28.5766 28.6718 29.417 27.8179 29.417 26.7684C29.417 25.719 28.5766 24.8651 27.5436 24.8651ZM27.5436 27.6336C27.0741 27.6336 26.6921 27.2455 26.6921 26.7684C26.6921 26.2914 27.0741 25.9033 27.5436 25.9033C28.0132 25.9033 28.3951 26.2914 28.3951 26.7684C28.3951 27.2455 28.0132 27.6336 27.5436 27.6336Z" stroke="#7589A7" stroke-width="0.3"/>
<defs>
<filter id="filter0_d" x="0" y="0" width="52" height="52" filterUnits="userSpaceOnUse" color-interpolation-filters="sRGB">
<feFlood flood-opacity="0" result="BackgroundImageFix"/>
<feColorMatrix in="SourceAlpha" type="matrix" values="0 0 0 0 0 0 0 0 0 0 0 0 0 0 0 0 0 0 127 0"/>
<feOffset dy="2"/>
<feGaussianBlur stdDeviation="5"/>
<feColorMatrix type="matrix" values="0 0 0 0 0.203922 0 0 0 0 0.188235 0 0 0 0 0.286275 0 0 0 0.1 0"/>
<feBlend mode="normal" in2="BackgroundImageFix" result="effect1_dropShadow"/>
<feBlend mode="normal" in="SourceGraphic" in2="effect1_dropShadow" result="shape"/>
</filter>
</defs>
</svg>
