<svg width="42" height="42" viewBox="0 0 42 42" fill="none" xmlns="http://www.w3.org/2000/svg">
<circle cx="21" cy="21" r="21" fill="#F6F7FB"/>
<path d="M26.1023 17.625C24.5051 17.625 23.2045 16.3635 23.2045 14.8125C23.2045 13.2615 24.5051 12 26.1023 12C27.6996 12 29 13.2615 29 14.8125C29 16.3635 27.6996 17.625 26.1023 17.625ZM26.1023 13.125C25.1441 13.125 24.3636 13.8817 24.3636 14.8125C24.3636 15.7433 25.1441 16.5 26.1023 16.5C27.0604 16.5 27.8409 15.7433 27.8409 14.8125C27.8409 13.8817 27.0604 13.125 26.1023 13.125Z" fill="#7589A7"/>
<path d="M26.1023 30C24.5051 30 23.2045 28.7385 23.2045 27.1875C23.2045 25.6365 24.5051 24.375 26.1023 24.375C27.6996 24.375 29 25.6365 29 27.1875C29 28.7385 27.6996 30 26.1023 30ZM26.1023 25.5C25.1441 25.5 24.3636 26.2567 24.3636 27.1875C24.3636 28.1183 25.1441 28.875 26.1023 28.875C27.0604 28.875 27.8409 28.1183 27.8409 27.1875C27.8409 26.2567 27.0604 25.5 26.1023 25.5Z" fill="#7589A7"/>
<path d="M14.8977 23.8125C13.3004 23.8125 12 22.551 12 21C12 19.449 13.3004 18.1875 14.8977 18.1875C16.495 18.1875 17.7955 19.449 17.7955 21C17.7955 22.551 16.495 23.8125 14.8977 23.8125ZM14.8977 19.3125C13.9396 19.3125 13.1591 20.0692 13.1591 21C13.1591 21.9308 13.9396 22.6875 14.8977 22.6875C15.8559 22.6875 16.6364 21.9308 16.6364 21C16.6364 20.0692 15.8559 19.3125 14.8977 19.3125Z" fill="#7589A7"/>
<path d="M16.9154 20.4525C16.7136 20.4525 16.5174 20.3504 16.4115 20.169C16.2531 19.899 16.3497 19.5554 16.6279 19.4018L23.7981 15.4342C24.0754 15.279 24.4301 15.3735 24.5877 15.6443C24.7462 15.9143 24.6496 16.2578 24.3714 16.4116L17.2012 20.379C17.1108 20.4284 17.0127 20.4525 16.9154 20.4525Z" fill="#7589A7"/>
<path d="M24.0847 26.64C23.9874 26.64 23.8892 26.6159 23.7988 26.5658L16.6286 22.5982C16.3504 22.4446 16.2539 22.101 16.4123 21.831C16.5699 21.5603 16.9239 21.4665 17.2021 21.621L24.3721 25.5884C24.6503 25.7422 24.7469 26.0857 24.5886 26.3557C24.4819 26.5379 24.2857 26.64 24.0847 26.64Z" fill="#7589A7"/>
<path d="M26.1023 17.625C24.5051 17.625 23.2045 16.3635 23.2045 14.8125C23.2045 13.2615 24.5051 12 26.1023 12C27.6996 12 29 13.2615 29 14.8125C29 16.3635 27.6996 17.625 26.1023 17.625ZM26.1023 13.125C25.1441 13.125 24.3636 13.8817 24.3636 14.8125C24.3636 15.7433 25.1441 16.5 26.1023 16.5C27.0604 16.5 27.8409 15.7433 27.8409 14.8125C27.8409 13.8817 27.0604 13.125 26.1023 13.125Z" stroke="#7589A7" stroke-width="0.3"/>
<path d="M26.1023 30C24.5051 30 23.2045 28.7385 23.2045 27.1875C23.2045 25.6365 24.5051 24.375 26.1023 24.375C27.6996 24.375 29 25.6365 29 27.1875C29 28.7385 27.6996 30 26.1023 30ZM26.1023 25.5C25.1441 25.5 24.3636 26.2567 24.3636 27.1875C24.3636 28.1183 25.1441 28.875 26.1023 28.875C27.0604 28.875 27.8409 28.1183 27.8409 27.1875C27.8409 26.2567 27.0604 25.5 26.1023 25.5Z" stroke="#7589A7" stroke-width="0.3"/>
<path d="M14.8977 23.8125C13.3004 23.8125 12 22.551 12 21C12 19.449 13.3004 18.1875 14.8977 18.1875C16.495 18.1875 17.7955 19.449 17.7955 21C17.7955 22.551 16.495 23.8125 14.8977 23.8125ZM14.8977 19.3125C13.9396 19.3125 13.1591 20.0692 13.1591 21C13.1591 21.9308 13.9396 22.6875 14.8977 22.6875C15.8559 22.6875 16.6364 21.9308 16.6364 21C16.6364 20.0692 15.8559 19.3125 14.8977 19.3125Z" stroke="#7589A7" stroke-width="0.3"/>
<path d="M16.9154 20.4525C16.7136 20.4525 16.5174 20.3504 16.4115 20.169C16.2531 19.899 16.3497 19.5554 16.6279 19.4018L23.7981 15.4342C24.0754 15.279 24.4301 15.3735 24.5877 15.6443C24.7462 15.9143 24.6496 16.2578 24.3714 16.4116L17.2012 20.379C17.1108 20.4284 17.0127 20.4525 16.9154 20.4525Z" stroke="#7589A7" stroke-width="0.3"/>
<path d="M24.0847 26.64C23.9874 26.64 23.8892 26.6159 23.7988 26.5658L16.6286 22.5982C16.3504 22.4446 16.2539 22.101 16.4123 21.831C16.5699 21.5603 16.9239 21.4665 17.2021 21.621L24.3721 25.5884C24.6503 25.7422 24.7469 26.0857 24.5886 26.3557C24.4819 26.5379 24.2857 26.64 24.0847 26.64Z" stroke="#7589A7" stroke-width="0.3"/>
</svg>
