<svg width="27" height="29" viewBox="0 0 27 29" fill="none" xmlns="http://www.w3.org/2000/svg">
<path fill-rule="evenodd" clip-rule="evenodd" d="M12.8927 2.61344C13.0465 2.4901 13.2586 2.48901 13.4085 2.60009C14.8133 3.64077 17.3154 5.51504 19.2396 7.0689L19.2432 7.07176L19.2467 7.0746C19.5792 7.33922 19.9062 7.59547 20.225 7.84529C21.2738 8.66717 22.234 9.41958 23.0099 10.172C23.3787 10.5298 23.6637 10.8492 23.878 11.1346H23.861H23.8314H23.8019H23.7723H23.7427H23.7131H23.6835H23.6539H23.6242H23.5946H23.5649H23.5353H23.5056H23.476H23.4463H23.4166H23.3869H23.3572H23.3275H23.2978H23.2681H23.2384H23.2087H23.179H23.1492H23.1195H23.0898H23.0601H23.0303H23.0006H22.9709H22.9411H22.9114H22.8816H22.8519H22.8222H22.7924H22.7627H22.733H22.7032H22.6735H22.6438H22.614H22.5843H22.5546H22.5249H22.4952H22.4655H22.4358H22.4061H22.3764H22.3467H22.317H22.2874H22.2577H22.228H22.1984H22.1687H22.1391H22.1095H22.0799H22.0503H22.0207H21.9911H21.9615H21.932H21.9024H21.8729H21.8433H21.8138H21.7843H21.7548H21.7253H21.6959H21.6664H21.637H21.6076H21.5782H21.5488H21.5194H21.49H21.4607H21.4313H21.402H21.3727H21.3435H21.3142H21.285H21.2558H21.2265H21.1974H21.1682H21.1391H21.1099H21.0808H21.0518H21.0227H20.9937H20.9647H20.9357H20.9067H20.8777H20.8488H20.8199H20.791H20.7622H20.7334H20.7046H20.6758H20.6471H20.6183H20.5896H20.561H20.5323H20.5037H20.4751H20.4466H20.418H20.3895H20.3611H20.3326H20.3042H20.2759H20.2475H20.2192H20.1909H20.1626H20.1344H20.1062H20.0781H20.05H20.0219H19.9938H19.9658H19.9378H19.9099H19.8819H19.8541H19.8262H19.7984H19.7706H19.7429H19.7152H19.6875H19.6599H19.6323H19.6048H19.5773H19.5498H19.5224H19.495H19.4677H19.4404H19.4131H19.3859H19.3587H19.3316H19.3045H19.2774H19.2504H19.2234H19.1965H19.1696H19.1428H19.116H19.0893H19.0626H19.0359H19.0093H18.9827H18.9562H18.9298H18.9034H18.877H18.8507H18.8244H18.7982H18.772H18.7459H18.7198H18.6938H18.6678H18.6419H18.616H18.5902H18.5644H18.5387H18.5131H18.4874H18.4619H18.4364H18.411H18.3856H18.3602H18.3349H18.3097H18.2846H18.2594H18.2344H18.2094H18.1844H18.1596H18.1347H18.11H18.0853H18.0606H18.036H18.0115H17.987H17.9626H17.9383H17.914H17.8897H17.8656H17.8415H17.8174H17.7935H17.7695H17.7457H17.7219H17.6982H17.6745H17.6509H17.6274H17.6039H17.5806H17.5572H17.534H17.5108H17.4876H17.4646H17.4416H17.4187H17.3958H17.373H17.3503H17.3277H17.3051H17.2826H17.2601H17.2378H17.2155H17.1933H17.1711H17.149H17.127H17.1051H17.0832H17.0615H17.0397H17.0181H16.9965H16.9751H16.9537H16.9323H16.9111H16.8899H16.8688H16.8478H16.8268H16.8059H16.7852H16.7644H16.7438H16.7233H16.7028H16.6824H16.6621H16.6418H16.6217H16.6016H16.5816H16.5617H16.5419H16.5222H16.5025H16.4829H16.4634H16.444H16.4247H16.4055H16.3863H16.3673H16.3483H16.3294H16.3106H16.2919H16.2732H16.2547H16.2362H16.2179H16.1996H16.1814H16.1633H16.1453H16.1274H16.1095H16.0918H16.0741H16.0566H16.0391H16.0217H16.0045H15.9873H15.9702H15.9532H15.9363H15.9195H15.9027H15.8861H15.8696H15.8532H15.8368H15.8206H15.8044H15.7884H15.7724H15.7566H15.7408H15.7252H15.7096H15.6942H15.6788H15.6636H15.6484H15.6333H15.6184H15.6035H15.5888H15.5741H15.5596H15.5451H15.5308H15.5165H15.5024H15.4884H15.4744H15.4606H15.4469H15.4333H15.4198H15.4064H15.3931H15.3799H15.3668H15.3538H15.3409H15.3282H15.3155H15.303H15.2906H15.2782H15.266H15.2539H15.2419H15.23H15.2183H15.2066H15.1951H15.1836H15.1723H15.1611H15.15H15.139H15.1281H15.1174H15.1067H15.0962H15.0858H15.0755H15.0653H15.0553H15.0453H15.0355H15.0258H15.0162H15.0067H14.9973H14.9881H14.979H14.97H14.9611H14.9523H14.9437H14.9352H14.9268H14.9185H14.9103H14.9023H14.8944H14.8866H14.8789H14.8714H14.864H14.8567H14.8495H14.8425H14.8356H14.8288H14.8221H14.8156H14.8091H14.8029H14.7967H14.7907H14.7848H14.779H14.7733H14.7678H14.7624H14.7572H14.752H14.7471H14.7422H14.7374H14.7328H14.7284H14.724H14.7198H14.7157H14.7118H14.708H14.7043H14.7008H14.6974H14.6941H14.691H14.688H14.6851H14.6824H14.6798H14.6773H14.675H14.6728H14.6708H14.6689H14.6671H14.6655H14.664H14.6627H14.6615H14.6604H14.6595H14.6587H14.6581H14.6576H14.6572H14.657C14.657 11.1346 14.6569 11.1346 14.6569 12.394C14.6569 13.6534 14.657 13.6534 14.657 13.6534H14.6572H14.6576H14.6581H14.6587H14.6595H14.6604H14.6615H14.6627H14.664H14.6655H14.6671H14.6689H14.6708H14.6728H14.675H14.6773H14.6798H14.6824H14.6851H14.688H14.691H14.6941H14.6974H14.7008H14.7043H14.708H14.7118H14.7157H14.7198H14.724H14.7284H14.7328H14.7374H14.7422H14.7471H14.752H14.7572H14.7624H14.7678H14.7733H14.779H14.7848H14.7907H14.7967H14.8029H14.8091H14.8156H14.8221H14.8288H14.8356H14.8425H14.8495H14.8567H14.864H14.8714H14.8789H14.8866H14.8944H14.9023H14.9103H14.9185H14.9268H14.9352H14.9437H14.9523H14.9611H14.97H14.979H14.9881H14.9973H15.0067H15.0162H15.0258H15.0355H15.0453H15.0553H15.0653H15.0755H15.0858H15.0962H15.1067H15.1174H15.1281H15.139H15.15H15.1611H15.1723H15.1836H15.1951H15.2066H15.2183H15.23H15.2419H15.2539H15.266H15.2782H15.2906H15.303H15.3155H15.3282H15.3409H15.3538H15.3668H15.3799H15.3931H15.4064H15.4198H15.4333H15.4469H15.4606H15.4744H15.4884H15.5024H15.5165H15.5308H15.5451H15.5596H15.5741H15.5888H15.6035H15.6184H15.6333H15.6484H15.6636H15.6788H15.6942H15.7096H15.7252H15.7408H15.7566H15.7724H15.7884H15.8044H15.8206H15.8368H15.8532H15.8696H15.8861H15.9027H15.9195H15.9363H15.9532H15.9702H15.9873H16.0045H16.0217H16.0391H16.0566H16.0741H16.0918H16.1095H16.1274H16.1453H16.1633H16.1814H16.1996H16.2179H16.2362H16.2547H16.2732H16.2919H16.3106H16.3294H16.3483H16.3673H16.3863H16.4055H16.4247H16.444H16.4634H16.4829H16.5025H16.5222H16.5419H16.5617H16.5816H16.6016H16.6217H16.6418H16.6621H16.6824H16.7028H16.7233H16.7438H16.7644H16.7852H16.8059H16.8268H16.8478H16.8688H16.8899H16.9111H16.9323H16.9537H16.9751H16.9965H17.0181H17.0397H17.0615H17.0832H17.1051H17.127H17.149H17.1711H17.1933H17.2155H17.2378H17.2601H17.2826H17.3051H17.3277H17.3503H17.373H17.3958H17.4187H17.4416H17.4646H17.4876H17.5108H17.534H17.5572H17.5806H17.6039H17.6274H17.6509H17.6745H17.6982H17.7219H17.7457H17.7695H17.7935H17.8174H17.8415H17.8656H17.8897H17.914H17.9383H17.9626H17.987H18.0115H18.036H18.0606H18.0853H18.11H18.1347H18.1596H18.1844H18.2094H18.2344H18.2594H18.2846H18.3097H18.3349H18.3602H18.3856H18.411H18.4364H18.4619H18.4874H18.5131H18.5387H18.5644H18.5902H18.616H18.6419H18.6678H18.6938H18.7198H18.7459H18.772H18.7982H18.8244H18.8507H18.877H18.9034H18.9298H18.9562H18.9827H19.0093H19.0359H19.0626H19.0893H19.116H19.1428H19.1696H19.1965H19.2234H19.2504H19.2774H19.3045H19.3316H19.3587H19.3859H19.4131H19.4404H19.4677H19.495H19.5224H19.5498H19.5773H19.6048H19.6323H19.6599H19.6875H19.7152H19.7429H19.7706H19.7984H19.8262H19.8541H19.8819H19.9099H19.9378H19.9658H19.9938H20.0219H20.05H20.0781H20.1062H20.1344H20.1626H20.1909H20.2192H20.2475H20.2759H20.3042H20.3326H20.3611H20.3895H20.418H20.4466H20.4751H20.5037H20.5323H20.561H20.5896H20.6183H20.6471H20.6758H20.7046H20.7334H20.7622H20.791H20.8199H20.8488H20.8777H20.9067H20.9357H20.9647H20.9937H21.0227H21.0518H21.0808H21.1099H21.1391H21.1682H21.1974H21.2265H21.2558H21.285H21.3142H21.3435H21.3727H21.402H21.4313H21.4607H21.49H21.5194H21.5488H21.5782H21.6076H21.637H21.6664H21.6959H21.7253H21.7548H21.7843H21.8138H21.8433H21.8729H21.9024H21.932H21.9615H21.9911H22.0207H22.0503H22.0799H22.1095H22.1391H22.1687H22.1984H22.228H22.2577H22.2874H22.317H22.3467H22.3764H22.4061H22.4358H22.4655H22.4952H22.5249H22.5546H22.5843H22.614H22.6438H22.6735H22.7032H22.733H22.7627H22.7924H22.8222H22.8519H22.8816H22.9114H22.9411H22.9709H23.0006H23.0303H23.0601H23.0898H23.1195H23.1492H23.179H23.2087H23.2384H23.2681H23.2978H23.3275H23.3572H23.3869H23.4166H23.4463H23.476H23.5056H23.5353H23.5649H23.5946H23.6242H23.6539H23.6835H23.7131H23.7427H23.7723H23.8019H23.8314H23.861H23.8905H23.9201H23.9496H23.9791H24.0086H24.0381H24.0676H24.097H24.1265H24.1559H24.1853H24.2147H24.2441H24.2735H24.3028H24.3322H24.3615H24.3908H24.4201H24.4494H24.4786H24.5078H24.537H24.5662H24.5954H24.6246H24.6537H24.6828H24.7119H24.741H24.77H24.7991H24.8281H24.857H24.886H24.9149H24.9438H24.9727H25.0016H25.0304H25.0593H25.088H25.1168H25.1455H25.1742H25.2029H25.2316H25.2602H25.2888H25.3174H25.3459H25.3745H25.4029H25.4314H25.4598H25.4882H25.5166H25.5449H25.5732H25.6015H25.6297H25.6579H25.6861H25.7143H27V12.394C27 10.7932 25.9134 9.44339 24.8191 8.38217C23.9366 7.52636 22.8275 6.65773 21.7572 5.81957C21.4571 5.58454 21.16 5.35188 20.8718 5.12259C18.9035 3.53327 16.3668 1.63357 14.9596 0.591179C13.854 -0.227854 12.3278 -0.188872 11.2636 0.66467L1.0994 8.81685C0.40486 9.37391 1.69036e-05 10.2057 9.30134e-06 11.0883C-2.87867e-06 12.4971 -1.60396e-05 15.5442 6.11277e-05 18.2711V18.2883V18.3055V18.3227V18.3399V18.3571V18.3743V18.3915V18.4087V18.4259V18.4431V18.4603V18.4775V18.4947V18.512V18.5292V18.5464V18.5636V18.5808V18.598V18.6153V18.6325V18.6497V18.6669V18.6842V18.7014V18.7186V18.7359V18.7531V18.7703V18.7875V18.8048V18.822V18.8392V18.8565V18.8737V18.8909V18.9082V18.9254V18.9426V18.9599V18.9771V18.9943V19.0116V19.0288V19.046V19.0633V19.0805V19.0977V19.115V19.1322V19.1494V19.1667V19.1839V19.2011V19.2184V19.2356V19.2528V19.27V19.2873V19.3045V19.3217V19.3389V19.3561V19.3734V19.3906V19.4078V19.425V19.4422V19.4594V19.4766V19.4938V19.511V19.5282V19.5454V19.5626V19.5798V19.597V19.6142V19.6314V19.6486V19.6658V19.683V19.7002V19.7173V19.7345V19.7517V19.7688V19.786V19.8032V19.8203V19.8375V19.8547V19.8718V19.889V19.9061V19.9232V19.9404V19.9575V19.9746V19.9918V20.0089V20.026V20.0431V20.0603V20.0774V20.0945V20.1116V20.1287V20.1458V20.1629V20.18V20.197V20.2141V20.2312V20.2483V20.2653V20.2824V20.2994V20.3165V20.3335V20.3506V20.3676V20.3846V20.4017V20.4187V20.4357V20.4527V20.4697V20.4867V20.5037V20.5207V20.5377V20.5547V20.5717V20.5886V20.6056V20.6226V20.6395V20.6565V20.6734V20.6903V20.7073V20.7242V20.7411V20.758V20.7749V20.7918V20.8087V20.8256V20.8425V20.8594V20.8762V20.8931V20.9099V20.9268V20.9436V20.9605V20.9773V20.9941V21.0109V21.0277V21.0445V21.0613V21.0781V21.0949V21.1116V21.1284V21.1452V21.1619V21.1787V21.1954V21.2121V21.2288V21.2455V21.2622V21.2789V21.2956V21.3123V21.329V21.3456V21.3623V21.3789V21.3955V21.4122V21.4288V21.4454V21.462V21.4786V21.4952V21.5118V21.5283V21.5449V21.5614V21.578V21.5945V21.611V21.6275V21.644V21.6605V21.677V21.6935V21.7099V21.7264V21.7429V21.7593V21.7757V21.7921V21.8085V21.8249V21.8413V21.8577V21.8741V21.8904V21.9068V21.9231V21.9394V21.9558V21.9721V21.9884V22.0046V22.0209V22.0372V22.0534V22.0697V22.0859V22.1021V22.1183V22.1345V22.1507V22.1669V22.1831V22.1992V22.2154V22.2315V22.2476V22.2637V22.2798V22.2959V22.312V22.328V22.3441V22.3601V22.3761V22.3922V22.4082V22.4242V22.4401V22.4561V22.4721V22.488V22.5039V22.5198V22.5357V22.5516V22.5675V22.5834V22.5992V22.6151V22.6309V22.6467V22.6625V22.6783V22.6941V22.7099V22.7256V22.7413V22.7571V22.7728V22.7885V22.8042V22.8198V22.8355V22.8511V22.8668V22.8824V22.898V22.9136V22.9291V22.9447V22.9602V22.9758V22.9913V23.0068V23.0223V23.0378V23.0532V23.0687V23.0841V23.0995V23.1149V23.1303V23.1457V23.161V23.1764V23.1917V23.207V23.2223V23.2376V23.2529V23.2681V23.2834V23.2986V23.3138V23.329V23.3441V23.3593V23.3745V23.3896V23.4047V23.4198V23.4349V23.4499V23.465V23.48V23.495V23.51V23.525V23.54V23.5549V23.5699V23.5848V23.5997V23.6146V23.6295V23.6443V23.6591V23.674V23.6888V23.7036V23.7183V23.7331V23.7478V23.7625V23.7772V23.7919V23.8066V23.8212V23.8358V23.8505V23.8651V23.8796V23.8942V23.9087V23.9233V23.9378V23.9523V23.9667V23.9812V23.9956V24.01V24.0244V24.0388V24.0532V24.0675V24.0818V24.0961V24.1104V24.1247V24.139V24.1532V24.1674V24.1816V24.1958V24.2099V24.2241V24.2382V24.2523V24.2664V24.2804V24.2945V24.3085V24.3225V24.3365V24.3504V24.3644V24.3783V24.3922V24.4061V24.42V24.4338V24.4476V24.4614V24.4752V24.489V24.5027V24.5164V24.5301V24.5438V24.5575V24.5711V24.5848V24.5984V24.6119V24.6255V24.639V24.6525V24.666V24.6795V24.693V24.7064V24.7198V24.7332V24.7466V24.7599V24.7733V24.7866V24.7999V24.8131V24.8264V24.8396V24.8528V24.8659V24.8791V24.8922V24.9053V24.9184V24.9315V24.9445V24.9576V24.9706V24.9835V24.9965V25.0094V25.0223V25.0352V25.0481V25.0609V25.0738V25.0866V25.0993V25.1121V25.1248V25.1375V25.1502V25.1628V25.1755V25.1881V25.2007V25.2133V25.2258V25.2383V25.2508V25.2633V25.2757V25.2881V25.3006V25.3129V25.3253V25.3376V25.3499V25.3622V25.3744V25.3867V25.3989V25.4111V25.4232V25.4354V25.4475V25.4596V25.4716V25.4837V25.4957V25.5077V25.5196V25.5316V25.5435V25.5554V25.5672V25.5791V25.5909V25.6026V25.6144V25.6261V25.6379V25.6495V25.6612V25.6728V25.6844V25.696V25.7076V25.7191V25.7306V25.7421V25.7535V25.765V25.7764V25.7877V25.7991V25.8104V25.8217V25.833V25.8442V25.8554V25.8666V25.8778V25.8889V25.9V25.9111V25.9222V25.9332V25.9442V25.9552V25.9661V25.977V25.9879V25.9988V26.0096V26.0204V26.0312V26.042V26.0527V26.0634C6.11277e-05 27.7003 1.36451 29.017 3.03169 28.9998L24.0315 28.7833C25.676 28.7664 27 27.4558 27 25.8449V23.8124H24.4285V25.8449C24.4285 26.0751 24.2394 26.2623 24.0045 26.2647L3.00463 26.4812C2.76422 26.4837 2.57154 26.2951 2.57154 26.0634V26.0527V26.042V26.0312V26.0204V26.0096V25.9988V25.9879V25.977V25.9661V25.9552V25.9442V25.9332V25.9222V25.9111V25.9V25.8889V25.8778V25.8666V25.8554V25.8442V25.833V25.8217V25.8104V25.7991V25.7877V25.7764V25.765V25.7535V25.7421V25.7306V25.7191V25.7076V25.696V25.6844V25.6728V25.6612V25.6495V25.6379V25.6261V25.6144V25.6026V25.5909V25.5791V25.5672V25.5554V25.5435V25.5316V25.5196V25.5077V25.4957V25.4837V25.4716V25.4596V25.4475V25.4354V25.4232V25.4111V25.3989V25.3867V25.3744V25.3622V25.3499V25.3376V25.3253V25.3129V25.3006V25.2881V25.2757V25.2633V25.2508V25.2383V25.2258V25.2133V25.2007V25.1881V25.1755V25.1628V25.1502V25.1375V25.1248V25.1121V25.0993V25.0866V25.0738V25.0609V25.0481V25.0352V25.0223V25.0094V24.9965V24.9835V24.9706V24.9576V24.9445V24.9315V24.9184V24.9053V24.8922V24.8791V24.8659V24.8528V24.8396V24.8264V24.8131V24.7999V24.7866V24.7733V24.7599V24.7466V24.7332V24.7198V24.7064V24.693V24.6795V24.666V24.6525V24.639V24.6255V24.6119V24.5984V24.5848V24.5711V24.5575V24.5438V24.5301V24.5164V24.5027V24.489V24.4752V24.4614V24.4476V24.4338V24.42V24.4061V24.3922V24.3783V24.3644V24.3504V24.3365V24.3225V24.3085V24.2945V24.2804V24.2664V24.2523V24.2382V24.2241V24.2099V24.1958V24.1816V24.1674V24.1532V24.139V24.1247V24.1104V24.0961V24.0818V24.0675V24.0532V24.0388V24.0244V24.01V23.9956V23.9812V23.9667V23.9523V23.9378V23.9233V23.9087V23.8942V23.8796V23.8651V23.8505V23.8358V23.8212V23.8066V23.7919V23.7772V23.7625V23.7478V23.7331V23.7183V23.7036V23.6888V23.674V23.6591V23.6443V23.6295V23.6146V23.5997V23.5848V23.5699V23.5549V23.54V23.525V23.51V23.495V23.48V23.465V23.4499V23.4349V23.4198V23.4047V23.3896V23.3745V23.3593V23.3441V23.329V23.3138V23.2986V23.2834V23.2681V23.2529V23.2376V23.2223V23.207V23.1917V23.1764V23.161V23.1457V23.1303V23.1149V23.0995V23.0841V23.0687V23.0532V23.0378V23.0223V23.0068V22.9913V22.9758V22.9602V22.9447V22.9291V22.9136V22.898V22.8824V22.8668V22.8511V22.8355V22.8198V22.8042V22.7885V22.7728V22.7571V22.7413V22.7256V22.7099V22.6941V22.6783V22.6625V22.6467V22.6309V22.6151V22.5992V22.5834V22.5675V22.5516V22.5357V22.5198V22.5039V22.488V22.4721V22.4561V22.4401V22.4242V22.4082V22.3922V22.3761V22.3601V22.3441V22.328V22.312V22.2959V22.2798V22.2637V22.2476V22.2315V22.2154V22.1992V22.1831V22.1669V22.1507V22.1345V22.1183V22.1021V22.0859V22.0697V22.0534V22.0372V22.0209V22.0046V21.9884V21.9721V21.9558V21.9394V21.9231V21.9068V21.8904V21.8741V21.8577V21.8413V21.8249V21.8085V21.7921V21.7757V21.7593V21.7429V21.7264V21.7099V21.6935V21.677V21.6605V21.644V21.6275V21.611V21.5945V21.578V21.5614V21.5449V21.5283V21.5118V21.4952V21.4786V21.462V21.4454V21.4288V21.4122V21.3955V21.3789V21.3623V21.3456V21.329V21.3123V21.2956V21.2789V21.2622V21.2455V21.2288V21.2121V21.1954V21.1787V21.1619V21.1452V21.1284V21.1116V21.0949V21.0781V21.0613V21.0445V21.0277V21.0109V20.9941V20.9773V20.9605V20.9436V20.9268V20.9099V20.8931V20.8762V20.8594V20.8425V20.8256V20.8087V20.7918V20.7749V20.758V20.7411V20.7242V20.7073V20.6903V20.6734V20.6565V20.6395V20.6226V20.6056V20.5886V20.5717V20.5547V20.5377V20.5207V20.5037V20.4867V20.4697V20.4527V20.4357V20.4187V20.4017V20.3846V20.3676V20.3506V20.3335V20.3165V20.2994V20.2824V20.2653V20.2483V20.2312V20.2141V20.197V20.18V20.1629V20.1458V20.1287V20.1116V20.0945V20.0774V20.0603V20.0431V20.026V20.0089V19.9918V19.9746V19.9575V19.9404V19.9232V19.9061V19.889V19.8718V19.8547V19.8375V19.8203V19.8032V19.786V19.7688V19.7517V19.7345V19.7173V19.7002V19.683V19.6658V19.6486V19.6314V19.6142V19.597V19.5798V19.5626V19.5454V19.5282V19.511V19.4938V19.4766V19.4594V19.4422V19.425V19.4078V19.3906V19.3734V19.3561V19.3389V19.3217V19.3045V19.2873V19.27V19.2528V19.2356V19.2184V19.2011V19.1839V19.1667V19.1494V19.1322V19.115V19.0977V19.0805V19.0633V19.046V19.0288V19.0116V18.9943V18.9771V18.9599V18.9426V18.9254V18.9082V18.8909V18.8737V18.8565V18.8392V18.822V18.8048V18.7875V18.7703V18.7531V18.7359V18.7186V18.7014V18.6842V18.6669V18.6497V18.6325V18.6153V18.598V18.5808V18.5636V18.5464V18.5292V18.512V18.4947V18.4775V18.4603V18.4431V18.4259V18.4087V18.3915V18.3743V18.3571V18.3399V18.3227V18.3055V18.2883V18.2711C2.57146 15.5442 2.57147 12.4971 2.57148 11.0883C2.57149 10.9642 2.62781 10.8464 2.72854 10.7656L12.8927 2.61344ZM14.6574 14.6609C14.6574 17.0408 15.403 19.3166 16.7195 21.0201C18.0424 22.732 19.9752 23.8963 22.2861 23.8963V21.8813C20.7398 21.8813 19.3726 21.1146 18.3597 19.804C17.3404 18.485 16.7146 16.6469 16.7146 14.6609H14.6574Z" fill="#404040"/>
</svg>
