<svg width="16" height="16" viewBox="0 0 16 16" fill="none" xmlns="http://www.w3.org/2000/svg">
<path d="M15.656 6.88494L12.6127 9.85369L13.3204 14.0461C13.3616 14.2466 13.3441 14.4546 13.2701 14.6454C13.196 14.8362 13.0685 15.0016 12.9029 15.1217C12.7373 15.2419 12.5405 15.3117 12.3361 15.3229C12.1318 15.3341 11.9286 15.2861 11.7508 15.1847L8 13.2002L4.23851 15.1794C4.08323 15.2632 3.90954 15.3071 3.73308 15.3071C3.50693 15.3073 3.28607 15.2387 3.09996 15.1102C2.93583 14.9913 2.80909 14.828 2.73463 14.6395C2.66017 14.451 2.64109 14.2451 2.67965 14.0461L3.3979 9.85901L0.344013 6.88494C0.19372 6.7468 0.0863323 6.56835 0.034658 6.37087C-0.0170163 6.17339 -0.0107961 5.96521 0.0525769 5.77116C0.11595 5.57712 0.233801 5.4054 0.392073 5.27648C0.550346 5.14757 0.742359 5.0669 0.945213 5.0441L5.14829 4.43225L7.0317 0.622883C7.11634 0.437109 7.25263 0.279604 7.42432 0.169157C7.59601 0.0587107 7.79585 -1.52588e-05 8 -1.52588e-05C8.20415 -1.52588e-05 8.40399 0.0587107 8.57568 0.169157C8.74737 0.279604 8.88366 0.437109 8.9683 0.622883L10.8517 4.43225L15.0548 5.0441C15.2576 5.0669 15.4497 5.14757 15.6079 5.27648C15.7662 5.4054 15.8841 5.57712 15.9474 5.77116C16.0108 5.96521 16.017 6.17339 15.9653 6.37087C15.9137 6.56835 15.8063 6.7468 15.656 6.88494Z" fill="url(#paint0_linear)"/>
<defs>
<linearGradient id="paint0_linear" x1="3.19261" y1="3.19259" x2="12.7704" y2="15.3245" gradientUnits="userSpaceOnUse">
<stop stop-color="#FFDA8E"/>
<stop offset="1" stop-color="#FFA944"/>
</linearGradient>
</defs>
</svg>
