<svg width="40" height="39" viewBox="0 0 40 39" fill="none" xmlns="http://www.w3.org/2000/svg">
<rect opacity="0.5" x="0.5" y="0.5" width="39" height="38" rx="9.5" stroke="#2C2941"/>
<path opacity="0.5" fill-rule="evenodd" clip-rule="evenodd" d="M25.2604 16.9652C24.8828 17.124 24.4727 17.2383 24.0495 17.2828C24.4857 17.0287 24.8177 16.6287 24.974 16.1524C24.5703 16.3874 24.1146 16.5588 23.6393 16.6477C23.2552 16.2477 22.7083 16 22.1029 16C20.9375 16 20 16.9208 20 18.0511C20 18.2099 20.0195 18.3686 20.0521 18.521C18.3073 18.4321 16.7513 17.6193 15.7161 16.3747C15.5339 16.6795 15.4297 17.0287 15.4297 17.4098C15.4297 18.121 15.8008 18.7497 16.3672 19.118C16.0221 19.1053 15.6966 19.01 15.4167 18.8576C15.4167 18.864 15.4167 18.8767 15.4167 18.883C15.4167 19.88 16.1393 20.7055 17.1029 20.896C16.9271 20.9405 16.7383 20.9659 16.5495 20.9659C16.4128 20.9659 16.2826 20.9532 16.1523 20.9341C16.4193 21.747 17.194 22.3375 18.1185 22.3566C17.3958 22.9091 16.4909 23.2329 15.5078 23.2329C15.332 23.2329 15.1693 23.2266 15 23.2075C15.931 23.7918 17.0378 24.1283 18.2292 24.1283C22.0964 24.1283 24.2123 21.004 24.2123 18.2924C24.2123 18.2035 24.2123 18.1146 24.2057 18.0257C24.6159 17.7336 24.974 17.3717 25.2604 16.9652V16.9652Z" fill="#2C2941"/>
</svg>
