<svg width="27" height="30" viewBox="0 0 27 30" fill="none" xmlns="http://www.w3.org/2000/svg">
<path d="M26.5197 28.1252C26.5481 28.2009 26.5637 28.2814 26.5637 28.3638C26.5637 28.7555 26.2093 29.1052 25.8176 29.1001M26.5197 28.1252L9.54797 16.0646C9.53021 16.0361 9.51255 16.0074 9.49498 15.9786L4.99585 17.937M26.5197 28.1252C26.5353 28.074 26.5453 28.0111 26.5525 27.9373C26.5627 27.8323 26.5681 27.6936 26.5702 27.5129C26.5742 27.1795 26.5672 26.6942 26.5572 25.9973C26.5564 25.9389 26.5555 25.8791 26.5547 25.8177V23.591C26.5547 22.4948 26.0975 21.368 25.444 20.3933L25.4442 20.3931L25.4398 20.3876C24.5607 19.2573 23.7737 18.5094 22.5791 17.9894L17.9596 15.9785C18.7918 14.6105 19.4155 12.8593 19.7874 10.8841C20.8032 9.46629 20.8274 8.06413 20.8274 6.7273C20.8274 5.53729 20.6207 4.18039 19.7005 3.07385L19.7008 3.07365L19.6951 3.06787L19.687 3.05972C19.0548 2.33099 18.1596 1.86771 17.2387 1.85456C16.5934 1.84534 15.9581 2.08402 15.3776 2.38366C13.5252 1.00427 12.0108 0.9 11.1819 0.9C9.8398 0.9 8.7271 1.8282 7.93834 2.94075C7.14737 4.05643 6.6273 5.43853 6.6273 6.7273C6.6273 8.06275 6.77614 9.64893 7.66723 10.8941M25.8176 29.1001C25.8173 29.1001 25.8171 29.1001 25.8169 29.1001L25.8183 29.0001V29.1001H25.8176ZM25.8176 29.1001H1.63636C1.24794 29.1001 0.900039 28.7522 0.9 28.3638V23.591C0.9 22.4889 1.37411 21.3822 2.03112 20.4223L2.03155 20.4217C2.67287 19.4998 3.73609 18.4282 4.99585 17.937M4.99585 17.937L4.99408 17.9378L5.03399 18.0295L4.9977 17.9363C4.99708 17.9365 4.99647 17.9368 4.99585 17.937Z" fill="#4F5E75" stroke="#4F5E75" stroke-width="0.2"/>
</svg>
