<svg width="35" height="35" viewBox="0 0 35 35" fill="none" xmlns="http://www.w3.org/2000/svg">
<circle cx="17.5" cy="17.5" r="17.5" fill="white"/>
<path d="M17.1525 21.7665C18.3762 21.7665 19.5498 21.2804 20.4151 20.4151C21.2804 19.5498 21.7665 18.3762 21.7665 17.1524C21.7665 15.9287 21.2804 14.7551 20.4151 13.8898C19.5498 13.0245 18.3762 12.5384 17.1525 12.5384C15.9287 12.5384 14.7551 13.0245 13.8898 13.8898C13.0245 14.7551 12.5384 15.9287 12.5384 17.1524C12.5384 18.3762 13.0245 19.5498 13.8898 20.4151C14.7551 21.2804 15.9287 21.7665 17.1525 21.7665V21.7665ZM22.0126 20.9252L24.7656 23.6782C24.839 23.7492 24.8976 23.8341 24.9378 23.928C24.978 24.0218 24.9992 24.1228 25 24.2249C25.0008 24.327 24.9813 24.4282 24.9425 24.5227C24.9038 24.6172 24.8466 24.703 24.7744 24.7751C24.7021 24.8473 24.6162 24.9043 24.5217 24.9429C24.4272 24.9815 24.3259 25.0009 24.2238 25C24.1217 24.999 24.0208 24.9777 23.927 24.9374C23.8332 24.897 23.7484 24.8383 23.6775 24.7648L20.9244 22.0118C19.6882 22.9714 18.1328 23.4238 16.5747 23.277C15.0167 23.1301 13.5732 22.395 12.5381 21.2213C11.5029 20.0476 10.954 18.5235 11.003 16.9594C11.052 15.3952 11.6953 13.9085 12.8019 12.8019C13.9085 11.6953 15.3952 11.052 16.9594 11.003C18.5236 10.954 20.0476 11.5029 21.2213 12.5381C22.395 13.5732 23.1301 15.0167 23.277 16.5747C23.4238 18.1328 22.9714 19.6882 22.0118 20.9244L22.0126 20.9252Z" fill="#3C3751"/>
</svg>
