<svg width="42" height="42" viewBox="0 0 42 42" fill="none" xmlns="http://www.w3.org/2000/svg">
<circle cx="21" cy="21" r="21" fill="#F6F7FB"/>
<path d="M21 15.7289L20.3899 14.8755C20.0531 14.4043 19.6761 14.0079 19.2673 13.6881L19.2673 13.688C18.4652 13.0605 17.5697 12.75 16.587 12.75C15.2523 12.75 14.0332 13.2876 13.1408 14.2667L21 15.7289ZM21 15.7289L21.6101 14.8755M21 15.7289L21.6101 14.8755M21.6101 14.8755C21.9471 14.4042 22.3238 14.0079 22.7325 13.6881L21.6101 14.8755ZM18.4389 27.1562L18.4389 27.1563L18.4415 27.1586C19.1286 27.7509 19.9109 28.4254 20.7237 29.1443L20.7242 29.1448C20.8016 29.2133 20.8993 29.25 21 29.25C21.1007 29.25 21.1986 29.2131 21.2755 29.145L21.2759 29.1447C22.0826 28.431 22.8598 27.7609 23.5434 27.1715L23.5615 27.1558L23.5616 27.1558C25.593 25.4046 27.2759 23.9507 28.4363 22.5342L28.4364 22.5341C29.7078 20.9823 30.25 19.5786 30.25 18.0802C30.25 16.5857 29.744 15.2378 28.8591 14.2667L18.4389 27.1562ZM18.4389 27.1562C16.4072 25.4048 14.7243 23.9507 13.5638 22.5343M18.4389 27.1562L13.5638 22.5343M13.5638 22.5343C12.2923 20.9823 11.75 19.5785 11.75 18.0803C11.75 16.5857 12.256 15.2378 13.1408 14.2667L13.5638 22.5343ZM25.413 12.75C26.7476 12.75 27.9666 13.2876 28.8591 14.2667L22.7326 13.688C23.5349 13.0605 24.4303 12.75 25.413 12.75Z" stroke="#2D2942" stroke-width="1.5"/>
</svg>
